<?xml version="1.0" encoding="utf-8"?>
<!-- Generator: Adobe Illustrator 18.1.1, SVG Export Plug-In . SVG Version: 6.00 Build 0)  -->
<svg version="1.1" id="Layer_1" xmlns="http://www.w3.org/2000/svg" xmlns:xlink="http://www.w3.org/1999/xlink" x="0px" y="0px"
	 viewBox="0 0 915.8 243.8" enable-background="new 0 0 915.8 243.8" xml:space="preserve">
<path fill="#C9C9C9" d="M145.9,122.3c-3,1.9-4.9,4.5-5.4,7.9c-0.2,1.4-0.3,3,0,4.4c0.6,3.6,3.2,5.6,7.2,5.7c6,0.1,10.9-2.5,14.8-6.8
	c7.4-8.4,10.7-18.2,9.9-29.4c-0.6-8.3-5.6-13.6-14-14.8c-1.9-0.3-3.8-0.4-5.8-0.6c0-0.3,0-0.6,0-1c0.2,0,0.4-0.1,0.6-0.1
	c6.7-0.6,13-2.4,18.5-6.5c9.4-6.8,11.4-18.5,8.6-26.9c-1-2.9-2.5-5.3-4.9-7.4c-3,2.4-5.5,5.1-7.8,8.1c-5.6,7.1-9.9,15.1-14.3,23
	c-5.4,9.7-10.6,19.5-16.3,29.1c-4.5,7.7-10.1,14.6-16.7,20.6c-11.5,10.4-25,15.3-40.4,14.5c-6.6-0.3-12.7-2.5-17.4-7.5
	c-4.3-4.5-5.7-9.8-4-15.8c1.3-4.4,5.1-6.8,9.7-6.1c3.1,0.4,5.3,2.7,5.8,6c0.5,3.2-1.3,6.6-4.2,7.8c-0.9,0.4-1,0.9-1,1.7
	c0,6.2,2.8,10.1,8.6,11.5c1.8,0.4,3.6,0.6,5.5,0.7c9,0.3,16.4-3.3,22.7-9.4c6.1-5.8,10.7-12.6,14.8-19.8c5.6-9.8,11-19.6,16.7-29.4
	c5.1-8.8,10.8-17.3,17.8-24.8c4.9-5.2,10.3-9.8,16.8-13.4c-0.4-0.3-0.7-0.6-1-0.8c-5.6-4.1-12-6.4-18.8-7.4
	c-16.7-2.4-31.7,2.2-45.5,11.4C97,52.7,90,60.7,85.8,70.9C82.6,79,81.2,87.3,83.3,96c0.5,2.1,1.3,4.1,2.3,6c4,7.4,10.4,10,18.5,7.6
	c6.5-2,10.8-6.5,13.8-12.4c3.4-6.6,4.6-13.7,4.1-21.1c-0.2-2.7-0.5-5.3-0.7-8.1c0.5-0.1,1-0.1,1.7-0.2c0.3,2.8,0.7,5.5,0.8,8.2
	c0.4,7.6-0.7,14.9-4.3,21.7c-5.3,10-13.6,15.1-24.9,15.3c-5.4,0.1-10.4-1-14.8-4.3c-5.1-3.8-7.6-9.2-8.5-15.3
	c-1.8-12.1,2.2-22.5,9.7-31.8c6.5-8,14.7-13.9,23.7-18.5c10.3-5.3,21.2-8.8,32.8-9.9c13.7-1.3,27,0.7,39.8,6.1
	c0.9,0.4,1.7,0.4,2.6,0c5.4-2.4,10.9-4.6,16.7-5.7c1.5-0.3,3.1-0.5,4.6-0.6c0.3,0,0.6,0.3,0.9,0.6c-7.3,1.2-13.9,3.7-19.8,8
	c1.8,1.5,3.5,2.8,5.1,4.2c8.8,8.1,10.5,24.9-3.1,34c-5.4,3.6-11.3,5.7-17.5,7.1c-1.3,0.3-2.6,0.5-4,1.1c1.5,0.2,3,0.4,4.5,0.7
	c2.7,0.6,5.4,1,8,1.9c7,2.3,10.6,7.4,10.8,14.8c0.3,14.5-6.5,24.9-18.9,31.8c-6.6,3.7-13.8,5.3-21.4,5.1c-4-0.1-7.8-1.2-11.2-3.5
	c-4.2-2.9-6.2-7.7-5-12.2c0.9-3.4,3-5.9,6.5-6.8C139.8,118.7,143,119.9,145.9,122.3z"/>
<path fill="#C9C9C9" d="M585.9,89.6c4.3-0.2,8.4-0.2,12.4-1.4c3.3-1,5.9-2.9,7.3-6.2c0.1-0.3,0.5-0.6,0.8-0.6
	c4.8-0.2,9.6-0.3,14.4-0.5c0.1,0,0.1,0.1,0.3,0.2c-2.1,1.6-4.1,3.2-6.1,4.8c-6.8,5.5-13.3,11.4-18.6,18.5c-2.8,3.7-5.1,7.6-6.8,11.9
	c-0.3,0.7-0.7,1-1.5,0.7c2.9-9.4,7-18.2,12.3-26.7c-2.6,0.3-5,0.5-7.5,0.7c-2.2,0.2-4.5,0.3-6.7,0.4c-1,0-1.5,0.4-2,1.2
	c-4.9,8.2-9.9,16.3-15.8,23.7c-6,7.5-12.8,14.3-21.5,18.7c-12.2,6.2-25,8-38.4,4.4c-4.8-1.3-9.1-3.5-12.6-7.1
	c-4.3-4.4-5.7-11.1-3.4-16.3c2-4.5,6.4-6.5,10.7-4.9c4.7,1.8,6,8.4,2.2,11.8c-0.6,0.6-1.5,0.9-2.3,1.2c-0.7,0.2-0.8,0.4-0.7,1.1
	c0.6,7.5,5.4,12.6,13,13.9c10.6,1.8,19.8-1.5,27.8-8.4c5.5-4.8,10-10.5,13.8-16.7c4.4-7.2,8.6-14.5,12.8-21.8
	c0.1-0.1,0.1-0.3,0.2-0.6c-2.1,0-4,0-6.1,0c0-0.6,0-1.1,0-1.7c1.9,0,3.7-0.1,5.6,0c1.1,0.1,1.7-0.3,2.2-1.3
	c4.4-8.9,9.8-17.2,16.8-24.3c8.9-9,19.6-14.8,31.9-17.6c0.3-0.1,0.5-0.1,0.8-0.2c0.1,0,0.2-0.1,0.3-0.4c-0.7,0-1.3,0-2,0
	c-9.4-0.2-18.9-0.3-28.3-0.5c-15.2-0.4-30.2,0.5-45.1,3.7c-8.2,1.8-16.2,4.2-23.4,8.8c-3.8,2.4-7.1,5.3-9.1,9.4
	c-4.3,8.8-2.5,17.7,8.3,22.4c5.8,2.5,12,3,18.2,2.3c6-0.7,11.7-2.3,16.7-5.7c7-4.8,10.9-11.5,11.6-19.9c0.2-2.5,0-5,0-7.6
	c0.7,0,1.2,0,1.7,0c0.7,7.8-0.4,15.1-4.5,21.7c-7.6,12.6-18.9,19-33.6,18.3c-7.6-0.3-14.2-3.4-18.8-9.8c-4.5-6.3-4.4-13.2-2.1-20.2
	c1.8-5.4,5.4-9.5,9.8-12.9c9.7-7.6,20.7-12.4,32.5-15.6c10.3-2.8,20.9-4.3,31.6-4.8c9-0.4,18.1-0.6,27.1-0.4
	c8.7,0.2,17.5,0.9,26.2,1.4c3.2,0.2,6.3,0.4,9.5,0.6c0.6,0,1.2,0.1,1.8,0.3c2.2,0.5,3.2,1.7,3.6,4c0.3,2.2-0.5,3.8-2.4,4.8
	c-2.4,1.3-5.1,1.7-7.8,1.7c-4.8-0.1-9.6,0-14.4-0.6c-8.4-1-15.2,1.9-21,7.7c-5.8,5.7-10.2,12.3-14.1,19.3c-2.6,4.6-5,9.4-7.5,14.1
	C586.2,88.9,586.1,89.2,585.9,89.6z"/>
<path fill="#C9C9C9" d="M755.1,138.1c-10.1-0.6-20.2-1-30.4,0c-0.1-0.4-0.1-0.7-0.1-0.9c0-0.3,0-0.6,0-0.9c1.4-0.3,2.8-0.6,4.1-1
	c4.4-1.3,6-3.3,6-7.9c0-8.6,0-17.1,0-25.7c0-2.9,0-5.8-0.3-8.7c-0.5-4.5-2.3-6.2-6.9-6.6c-0.3,0-0.6,0-0.8,0
	c-1.6-0.1-1.6-0.1-1.4-1.9c6.7-1,13.4-1.9,20.2-2.9c0,2.5,0,4.8,0,7.3c0.6-0.4,1-0.7,1.4-1c3.7-2.7,7.5-5.3,12.1-6.4
	c8.1-2,14.9,0,20.1,6.5c0.2,0.2,0.4,0.5,0.7,0.8c0.4-0.2,0.7-0.5,1.1-0.7c3.9-2.7,7.8-5.3,12.3-6.5c7-1.9,13.4-0.9,18.7,4.5
	c3.3,3.3,4.7,7.7,4.8,12.2c0.2,9.4,0.2,18.9,0.2,28.3c0,1.2,0,2.5,0.2,3.7c0.4,2.2,1.7,3.7,3.7,4.5c2,0.7,4,1.2,6.1,1.8
	c0,0.4,0,0.9,0,1.6c-9.9-0.4-19.8-1.1-29.8,0.1c0-0.7,0-1.2,0-1.8c1.1-0.3,2.3-0.6,3.4-1c3.7-1.2,5.3-3.3,5.4-7.2
	c0-9,0.1-18.1,0-27.1c0-2.7-0.7-5.4-2.2-7.8c-2.1-3.4-5.1-5.3-9.2-5.3c-4.6,0-8.8,1-12.5,3.9c-0.7,0.5-0.9,1.1-0.9,1.9
	c0,11.3,0,22.6,0,33.8c0,4.3,1.6,6.4,5.6,7.7c0.9,0.3,1.8,0.6,2.7,0.7c1.3,0.1,1.5,0.7,1.2,2c-9.7-0.4-19.4-1-29.2,0.1
	c0-0.7,0-1.2,0-1.8c1.3-0.4,2.6-0.7,3.9-1.2c3.2-1.1,4.9-3.3,4.9-6.7c0.1-9.9,0-19.8,0-29.6c0-1.3-0.2-2.6-0.5-3.8
	c-1.2-5.3-4.3-7.8-10-8c-3.8-0.1-7.1,1-10,3.5c-4.2,3.5-4.2,3.4-4.2,8.8c0,9.3,0,18.6,0,27.8c0,5,1.6,7.1,6.4,8.4
	c0.6,0.2,1.2,0.4,1.9,0.4C755.2,136.1,755.4,136.8,755.1,138.1z"/>
<path fill="#C9C9C9" d="M632.8,96.5c-3.8-0.8-7.5-1.5-11.2-2.2c0.3-5.3,4.5-10.9,9.8-12.4c6.3-1.8,12.7-1.9,19.1-0.2
	c7.9,2.2,11.8,7.6,11.8,15.9c0,9,0,17.9,0,26.9c0,1.2,0.3,2.5,0.7,3.6c1.1,2.7,3.5,3.8,6.3,3.2c2-0.4,3.6-1.6,5.2-2.8
	c0.8-0.6,1.5-1.3,2.4-2c0.5,0.5,0.9,1,1.4,1.6c-1.3,1.4-2.5,2.8-3.8,4c-2.1,2-4.3,3.9-6.4,5.7c-0.6,0.5-1.3,0.8-2,1.1
	c-2.7,1.4-5.3,1.1-7.6-0.9c-1.6-1.4-3.1-2.9-4.6-4.4c-0.7-0.7-1.4-1.5-2.2-2.4c-0.3,0.2-0.6,0.4-0.9,0.6c-4.7,3.3-9.7,6.1-15.3,7.4
	c-5.3,1.2-10.2,0.6-14.5-2.9c-7.2-5.6-7-18.4,1-23.9c3.6-2.5,7.7-4,12-4.5c5.3-0.7,10.7-1,16.1-1.5c0.5,0,1,0,1.5,0
	c0.1-0.2,0.2-0.3,0.2-0.3c-0.1-4.7,0.2-9.4-0.4-14c-0.7-5.6-6-9-11.6-8.3c-1.6,0.2-2.9,1.1-3.9,2.4c-2,2.5-2.8,5.5-3,8.7
	C632.9,95.5,632.9,95.9,632.8,96.5z M651.7,119.9c0-2.2,0-4.5,0-6.7c0-0.3-0.4-0.9-0.7-1c-4.7-1.2-9.5-1.7-14.3-0.4
	c-4.1,1.2-7.2,3.5-8.5,7.7c-1.7,5.5,0.4,10.5,5.4,12.2c1.4,0.5,2.9,0.7,4.3,0.8c5,0.1,9.3-1.9,13.3-4.8c0.3-0.2,0.5-0.8,0.5-1.2
	C651.7,124.3,651.7,122.1,651.7,119.9z"/>
<path fill="#C9C9C9" d="M423.8,36.4c-0.3-1.7-0.3-1.7,1.3-1.9c5.8-0.8,11.6-1.5,17.5-2.3c0.5-0.1,1-0.1,1.7-0.2c0,0.6,0,1.2,0,1.7
	c0,29.6,0,59.2,0,88.8c0,2.3,0.2,4.6,0.5,6.9c0.4,3.3,2.4,5.4,5.7,6.1c1.5,0.3,3,0.5,4.6,0.8c0,0.5,0,0.9,0,1.7
	c-10.6-0.7-21.3-0.8-32.1,0c0-0.7,0-1.2,0-1.8c1.1-0.2,2.1-0.3,3.2-0.5c4.4-0.8,6.4-2.9,6.9-7.4c0.2-1.7,0.3-3.5,0.3-5.3
	c0-25.8,0-51.5,0-77.3c0-1.2-0.1-2.3-0.2-3.5c-0.6-3.8-2.3-5.4-6.2-5.8C425.8,36.6,424.8,36.5,423.8,36.4z"/>
<path fill="#C9C9C9" d="M530.8,186.2c4.7-3.6,9.7-6.9,15.5-8.3c1.6-0.4,3.2-0.6,4.8-0.8c0.1,0.1,0.1,0.2,0.2,0.4
	c-0.3,0.3-0.6,0.6-1,0.8c-6.1,2.4-11.3,6.1-16.4,10c-5.7,4.3-10.2,9.5-13.9,15.5c-0.2,0.3-0.5,0.6-0.6,0.6c-0.3-0.1-0.6-0.4-0.8-0.7
	c-0.5-1.1-0.5-2.2,0.1-3.2c1.1-2,2.3-4,3.5-6c0.2-0.4,0.4-0.7,0.8-1.4c-2.7,1.3-5,2.6-7.4,3.6c-3.8,1.6-7.7,3.2-11.6,4.5
	c-3,1-4.7-0.4-5-3.6c0-0.5-0.1-1.1-0.1-1.8c-0.4,0.2-0.7,0.3-0.9,0.5c-3,2.1-6,4.3-9,6.4c-1,0.7-2.1,1.2-3.2,1.4
	c-2.4,0.4-4.1-1.8-3.3-4c0.5-1.3,1.2-2.6,1.9-4c-0.5,0.2-0.9,0.5-1.3,0.7c-4.1,1.9-8.1,3.8-12.2,5.5c-1.3,0.5-2.8,0.6-4.2,0.4
	c-3-0.4-4.5-3.3-3.6-6.4c0.1-0.5,0-1,0.1-1.5c-0.5,0.1-1.1,0-1.5,0.3c-2.5,1.7-4.9,3.4-7.3,5.2c-2.1,1.5-4,3.2-6.1,4.7
	c-0.6,0.4-1.6,0.6-2.2,0.3c-0.5-0.2-0.8-1.2-0.8-1.9c0-3.1,1.3-5.9,2.5-8.7c0.2-0.5,0.4-0.9,0.8-1.7c-1.4,0.8-2.5,1.4-3.6,2
	c-4.7,2.3-9.4,4.6-14.1,6.9c-1.7,0.8-3.5,1.2-5.4,0.7c-2.7-0.7-4-2.7-4.1-6.2c-0.4,0.2-0.8,0.4-1.2,0.7c-5.5,3.3-11.2,6.1-17.4,7.9
	c-0.6,0.2-1.2,0.3-1.9,0.4c-2.3,0.3-3.3-0.5-3.4-2.9c-0.2-2.5,0.3-4.8,1.1-7.2c0.1-0.4,0.2-0.7,0.2-1.3c-0.3,0.2-0.6,0.5-0.9,0.7
	c-3.2,2.6-6.3,5.2-10.1,6.8c-0.3,0.1-0.7,0.3-1,0.4c-2.8,1.2-3.9,0-3.8-3c0.1-1.3,0.6-2.8,1.3-3.9c2.8-4.9,6.7-8.7,11.6-11.6
	c2.2-1.3,3.8-0.6,4.6,1.7c0.2,0.7,0.1,0.9-0.7,0.9c-0.8,0-1.7,0.1-2.4,0.4c-5.2,2.7-9,7-11.9,12c-0.1,0.2-0.1,0.4-0.2,0.8
	c0.7-0.1,1.2-0.2,1.7-0.4c3.1-1.1,5.6-2.9,8.2-4.9c5.3-3.9,9.1-9,12.6-14.5c3.7-5.7,7.7-11.3,11.5-17c0.2-0.3,0.4-0.5,0.6-0.8
	c0.5-0.6,1-0.6,1.4,0.1c1.1,1.7,1.3,2.3,0.2,4c-5.4,7.6-10.7,15.1-15.9,22.8c-1.8,2.6-3.1,5.5-4.5,8.3c-0.6,1.1-1.3,2.6-0.2,3.7
	c1,1.2,2.5,0.6,3.7,0.3c6.2-1.9,11.9-4.8,17.6-7.9c0.4-0.2,0.6-0.8,0.9-1.2c1.8-2.8,3.5-5.7,5.4-8.5c1.3-1.9,3.5-1.8,5.6-1.8
	c0.2,0,0.6,0.3,0.6,0.4c0,0.3-0.2,0.7-0.4,0.9c-3.5,3.2-6.4,6.9-8.7,11.1c-0.6,1-1,2.1-1.2,3.2c-0.4,1.6,0.3,2.5,2,2.5
	c0.9,0,1.9-0.2,2.8-0.4c6.3-1.8,11.9-5.2,17.7-8.2c2.7-1.4,4.9-3.1,6.3-5.9c0.5-1.1,1.4-2.1,2.1-3.2c1.2-1.7,3.3-2.2,5.4-1.2
	c-0.5,0.8-1,1.6-1.5,2.4c-2.2,3.2-4.5,6.4-6.6,9.7c-1.3,1.9-2.3,4-3.3,6.1c-0.3,0.6-0.2,1.3-0.3,2c0.1,0.1,0.3,0.1,0.4,0.2
	c0.5-0.3,1.1-0.7,1.5-1c3.8-2.8,7.5-5.7,11.3-8.5c1.2-0.9,2.6-1.5,4-2.1c0.5-0.2,1.3-0.2,1.8-0.1c2.1,0.6,2.4,1.8,1.2,3.6
	c-0.8,1.1-1.5,2.2-2.2,3.4c-0.3,0.5-0.5,1.2-0.6,1.8c-0.3,2,0.4,2.8,2.3,2.1c3.2-1.1,6.4-2.3,9.5-3.7c3.6-1.6,7.2-3.5,10.7-5.3
	c0.8-0.4,1.4-1.2,2.1-1.7c2.3-1.9,4.7-3.8,7-5.6c0.6-0.5,1.4-0.8,2.1-1.1c2.7-1.1,5-0.2,6.2,2.5c0.2,0.4,0.2,0.9,0.3,1.6
	c-0.7-0.2-1.1-0.3-1.5-0.5c-1.5-0.7-3.1-0.7-4.6,0c-3.5,1.7-6.4,4.1-9.1,6.8c-1.7,1.7-3.2,3.6-4.8,5.5c-0.3,0.3-0.3,0.9-0.4,1.3
	c0.5,0,1.1,0.2,1.4,0c2.6-1.4,5.1-2.8,7.6-4.3c2.6-1.6,5.1-3.3,6.9-5.9c0.6-0.9,3-0.9,3.8-0.1c0.2,0.3,0.1,1-0.1,1.4
	c-1,1.6-2.2,3-3.2,4.6c-0.3,0.5-0.5,1.2-0.7,1.8c-0.3,0.9,0.2,1.4,1.1,1.2c1.3-0.3,2.7-0.6,3.9-1.1c6.1-2.7,12.1-5.5,18.1-8.2
	c0.4-0.2,0.8-0.7,1-1.1c1.5-2.6,2.4-5.4,2.8-8.4c0.1-1,0.5-1.1,1.3-0.8c1.7,0.7,2.3,1.8,1.9,3.6c-0.1,0.6-0.3,1.1-0.6,1.7
	c-0.2,0.5-0.5,1.1-0.7,1.6C530.6,186,530.7,186.1,530.8,186.2z"/>
<path fill="#C9C9C9" d="M831.4,135.8c-0.3-5.5-0.7-11-1-16.5c0-0.1,0.1-0.2,0.1-0.4c1.2-0.4,1.9,0,2.6,1.1c2.7,4.2,6,8,10,11
	c3.9,2.9,8.1,4.7,13,4.4c1.8-0.1,3.6-0.5,5.2-1.1c4.3-1.8,5.8-6.3,3.5-10.4c-1.4-2.6-3.7-4.2-6.3-5.4c-3.8-1.7-7.8-3.2-11.6-4.9
	c-2.9-1.3-5.8-2.5-8.4-4.2c-6.1-3.9-8.3-9.5-6.6-16.5c1.7-7.2,7.2-11.8,14.6-12.1c4.4-0.2,8.6,0.9,12.9,1.8c2.7,0.6,5.3,1,8,1.4
	c1,0.1,0.9,0.7,1,1.3c0.2,4.2,0.4,8.4,0.6,12.6c0,0.6,0.1,1.2,0.1,1.8c-1.2,0.4-1.9,0.1-2.5-1.1c-2.7-4.7-6.3-8.7-11.2-11.3
	c-3.7-1.9-7.5-2.7-11.6-1.5c-2.6,0.7-4.3,2.3-5,5c-0.7,2.8,0,5.3,2.3,7c2.1,1.5,4.3,2.8,6.7,3.9c4.1,1.9,8.3,3.4,12.5,5.3
	c2,0.9,4,2.1,5.8,3.3c5,3.4,7.3,8.1,6.9,14.1c-0.5,6.5-3.1,11.5-9.4,13.9c-2.1,0.8-4.4,1.2-6.6,1.5c-6.8,0.9-13.4-0.7-20-2.5
	C835.2,136.7,833.4,136.3,831.4,135.8z"/>
<path fill="#C9C9C9" d="M314.4,84.2c0.3,5,0.5,10.1,0.8,15.2c-1.1,0.3-1.8,0.2-2.5-0.9c-3.1-5.3-7.1-9.7-12.8-12.1
	c-3.3-1.4-6.6-1.7-10.1-0.7c-2.6,0.8-4.4,2.5-4.9,5.2c-0.6,2.8,0.3,5.1,2.5,6.9c2.6,2.2,5.7,3.4,8.7,4.7c4.3,1.8,8.7,3.5,12.8,5.6
	c2.4,1.2,4.6,3,6.5,5c3.6,3.7,4.1,8.3,3.3,13.2c-1.2,7.7-6,12-14,13.2c-7,1-13.7-0.1-20.4-1.9c-2.1-0.6-4.2-1-6.3-1.5
	c-0.3-0.1-0.8-0.5-0.8-0.8c-0.4-5.4-0.7-10.9-1.1-16.4c1.3-0.4,2-0.1,2.8,1c3.3,5.1,7.2,9.6,12.5,12.7c4.6,2.7,9.4,3.7,14.6,2.1
	c7.2-2.1,6.8-9.4,3.3-12.9c-2.2-2.2-4.8-3.5-7.6-4.7c-4.4-1.9-9-3.6-13.4-5.6c-1.8-0.8-3.5-1.8-5-3c-5.5-4.1-7.2-9.9-5.2-17
	c1.9-6.4,7.4-10.7,14.3-10.8c2.7-0.1,5.3,0.2,8,0.7C305.1,82.2,309.6,83.2,314.4,84.2z"/>
<path fill="#C9C9C9" d="M342,87.6c0,0.6,0,1,0,1.4c0,11.2,0,22.3,0,33.5c0,1.6,0.2,3.3,0.5,4.9c0.7,3.9,3.2,5.5,7.1,5.1
	c3.7-0.4,6.6-2.4,9.2-4.9c0.6-0.6,1.1-1.3,1.8-2c0.6,0.6,0.9,1.1,1.4,1.6c-4,4.1-7.8,8.4-13.1,11c-3,1.5-6.1,2.1-9.4,1.7
	c-4-0.5-6.5-2.8-7.5-6.6c-0.5-2.1-0.8-4.3-0.8-6.4c-0.1-12.5,0-25,0-37.5c0-0.5,0-1,0-1.6c-3.7,0-7.3,0-11,0c0-0.8,0-1.5,0-2.3
	c0.2,0,0.5-0.1,0.7-0.1c4.2-0.4,7.6-2.4,10.4-5.6c3.5-4,5.5-8.8,7.3-13.7c0.3-0.9,0.7-1.9,1-2.8c0.5-1.6,0.5-1.6,2.4-1.3
	c0,7,0,14.1,0,21.3c6.4,0,12.7,0,19,0c0,1.5,0,2.9,0,4.5C354.7,87.6,348.4,87.6,342,87.6z"/>
<path fill="#C9C9C9" d="M705.2,136.4c0,0.5,0,1,0,1.7c-10.4-0.4-20.6-1-30.9,0c-0.4-1.7-0.4-1.7,1.1-2.1c1.3-0.3,2.6-0.7,3.9-1.1
	c2.9-1,4.2-3.2,4.4-6.2c0.1-0.9,0.1-1.8,0.1-2.6c0-10.8,0-21.5,0-32.3c0-0.8,0-1.5-0.1-2.3c-0.4-2.6-2.1-4.2-5-4.6
	c-1.4-0.2-2.8-0.3-4.3-0.4c0-0.5,0-1.1,0-1.7c6.7-1.1,13.4-2.1,20.2-3.2c0,2.8,0,5.5,0,8.4c0.6-0.5,1.1-0.8,1.5-1.1
	c3.2-2.6,6.4-5.2,9.7-7.7c2.5-1.8,5.3-2.9,8.5-2.5c5.5,0.7,8.7,3.9,9.4,9.5c0.3,2.4,0.3,2.4-1.8,3.6c-2.9,1.6-5.9,3.3-8.9,5
	c0.2-1.2,0.5-2.2,0.6-3.2c0.1-1,0.1-2.1-0.1-3.1c-0.7-3.5-3.7-5.1-7.1-4.1c-3.1,1-5.4,3.1-7.7,5.4c-1.4,1.4-3.1,2.7-3.8,4.4
	c-0.7,1.6-0.2,3.6-0.2,5.5c0,8.7,0,17.4,0,26c0,4.4,1.5,6.5,5.7,7.7C702,135.7,703.6,136,705.2,136.4z"/>
<path fill="#C9C9C9" d="M221.2,136.4c0,0.5,0,1,0,1.6c-10.4-0.4-20.7-1-31,0c-0.4-1.7-0.4-1.7,1.1-2.1c1.5-0.4,3.1-0.8,4.6-1.4
	c2.3-1,3.5-2.9,3.8-5.3c0.1-0.9,0.2-1.9,0.2-2.9c0-10.7,0-21.4,0-32.2c0-0.8,0-1.5-0.1-2.3c-0.2-2.6-1.5-4.3-4.1-4.9
	c-1.7-0.4-3.5-0.5-5.3-0.8c0-0.5,0-1,0-1.6c6.7-1.1,13.4-2.1,20.2-3.2c0,2.8,0,5.5,0,8.5c1-0.8,1.7-1.4,2.4-1.9
	c3.2-2.5,6.4-5.2,9.8-7.5c2.6-1.9,5.7-2.4,8.9-1.7c4.4,0.9,7.1,4,7.9,8.8c0.5,2.8,0.5,2.8-2,4.2c-2.9,1.6-5.7,3.2-8.7,4.9
	c0.2-1,0.5-1.9,0.5-2.9c0.1-1.3,0.2-2.6-0.1-3.8c-0.8-3.3-3.7-4.9-6.8-3.7c-1.9,0.7-3.8,1.8-5.3,3.1c-2.2,1.8-4.1,4-6.1,6.1
	c-0.3,0.3-0.5,0.8-0.5,1.3c0,10.5,0,21,0,31.6c0,3.5,1.6,5.5,4.9,6.6C217.4,135.6,219.3,135.9,221.2,136.4z"/>
<path fill="#C9C9C9" d="M825.2,192.5c-2.9,0.8-5.7,1.7-8.6,2.4c-2.1,0.5-4.3,0.6-6.5,1c-0.6,0.1-1.3,0.5-1.8,0.9
	c-1.6,1.5-3,3.3-4.6,4.7c-1,0.9-2.4,1.5-3.7,1.9c-2,0.6-3.3-0.2-3.6-2.2c-0.2-1.3,0-2.7,0-4c0-0.3,0.1-0.6,0.2-1.1
	c-1.3,0.9-2.5,1.6-3.7,2.4c-5.1,3.3-10.2,6.6-15.3,9.8c-1.9,1.1-3.9,1.9-6,2.6c-2.9,0.9-4.3-0.3-4.6-3.4c-0.5-5.5,1.1-10.4,3.8-15
	c3-5.1,6.2-10.1,9.3-15.1c1-1.6,1.9-3.2,3-5c-2.5,0.2-4.6,0.5-6.7,0.6c-2.8,0.2-5.4-0.1-7.8-1.8c-1.4-1-2.4-2.3-2.2-4.5
	c0.8,0.3,1.6,0.4,2.2,0.8c3.5,2.7,7.6,2.7,11.8,2.6c2.9-0.1,5.2-0.7,6.5-3.7c1-2.4,2.6-4.6,3.9-6.9c0.7-1.3,2.9-2.2,4.2-1.5
	c0.3,0.1,0.7,0.7,0.6,1c-0.1,0.5-0.3,1.1-0.6,1.5c-1.5,2.4-3,4.7-4.5,7.1c-0.2,0.3-0.3,0.7-0.7,1.3c1.8-0.3,3.4-0.6,4.9-0.8
	c2.9-0.4,5.8-0.8,8.7-1.1c0.7-0.1,1.4,0.3,2,0.4c-0.2,0.8-0.3,1.6-0.6,2.3c-0.3,0.8-1.1,1.2-2,1.1c-3.6-0.8-7.2,0-10.8,0.3
	c-3,0.2-4.8,1.6-6.4,4.1c-5.2,7.9-10.5,15.8-14.3,24.5c-0.6,1.5-1.1,3-1.5,4.5c-0.6,2.3,0.5,3.4,2.8,2.7c2.1-0.7,4.1-1.5,6-2.6
	c4.6-2.7,9.1-5.5,13.6-8.3c1.9-1.1,4.1-1.9,5.7-3.3c1.6-1.4,2.6-3.5,4-5.2c1-1.2,2.1-2.4,3.3-3.5c1.4-1.3,5-0.7,5.9,0.9
	c0.1,0.1,0.1,0.3,0.1,0.4c-0.1,0.1-0.2,0.2-0.3,0.2c-2.6-0.1-4.3,1.5-5.8,3.4c-1.6,2-3.1,4-4.5,6.2c-0.7,1.1-1,2.4-1.2,3.7
	c-0.2,1.1,0.3,1.4,1.3,1.1c2.5-0.7,4.4-2.1,5.8-4.3c-1.2-1.5-1.3-2.2,0-3.6c0.8-0.9,1.8-1.7,2.7-2.5c0.3-0.2,0.6-0.5,0.9-0.5
	c0.8,0,1.6,0,2.4,0.1c-0.1,0.8-0.1,1.5-0.3,2.3c-0.2,0.5-0.5,1-0.8,1.5c0.1,0.1,0.1,0.2,0.2,0.4c1.4-0.1,2.8-0.1,4.1-0.4
	c3.7-1,7.3-2.1,11-3.3c0.4-0.1,0.9-0.6,1.1-1c1.5-2.7,2.6-5.5,2.8-8.6c0.1-0.8,0.4-1,1.2-0.8c1.9,0.6,2.6,2,2,3.9
	c-0.3,1-0.8,2-1.1,3.1c6.2-4.5,12.5-8.6,20.6-8.6c-0.3,0.2-0.6,0.6-1,0.7c-6.5,2.6-12.1,6.6-17.6,10.9c-5.2,4-9.3,9.1-12.8,14.6
	c-0.2,0.3-0.6,0.7-0.7,0.6c-0.3-0.1-0.6-0.5-0.8-0.8c-0.5-1.1-0.4-2.3,0.2-3.3c1.3-2.2,2.7-4.4,4-6.7
	C824.8,193.2,825,192.8,825.2,192.5z"/>
<path fill="#C9C9C9" d="M242.8,83c7-0.5,14-1,21.1-1.5c0,0.6,0,1.1,0,1.6c0,14.2,0,28.4,0,42.6c0,1.1,0.1,2.2,0.2,3.3
	c0.7,4.8,2.7,6.6,7.6,7c1,0.1,2,0.2,3.1,0.3c0,0.5,0,1,0,1.7c-10.7-0.4-21.3-1-32,0.1c0-0.7,0-1.2,0-1.7c1.4-0.2,2.9-0.3,4.3-0.6
	c3-0.5,4.9-2.2,5.4-5.3c0.3-1.6,0.5-3.2,0.5-4.9c0-9.6,0-19.1,0-28.7c0-1.2-0.1-2.4-0.3-3.6c-0.7-4.7-3-7.1-7.7-8
	c-0.2,0-0.5-0.1-0.7-0.1C242.6,85,242.6,85,242.8,83z"/>
<path fill="#C9C9C9" d="M671.9,199.3c0.9-0.2,1.6-0.3,2.3-0.6c4-1.6,7.3-4.4,10.6-7.1c4.3-3.6,7.2-8.4,10.3-13
	c3.6-5.3,7.2-10.6,10.8-15.8c1.3-1.8,1.7-1.7,2.8,0.2c0.5,1,0.3,1.8-0.3,2.6c-4.8,6.7-9.6,13.3-14.2,20.1c-2.2,3.2-4,6.7-5.9,10.1
	c-0.5,1-0.9,2.1-1.1,3.1c-0.4,1.7,0.3,2.5,2,2.4c1.2-0.1,2.4-0.4,3.5-0.8c6-2.2,11.7-4.9,17.2-8.1c0.4-0.2,0.8-0.4,1.3-0.7
	c0.2,1.5-0.4,2.5-1.5,3.3c-3.9,2.9-8.3,5.1-12.8,7c-2.7,1.1-5.6,2-8.3,3c-0.4,0.1-0.8,0.2-1.2,0.2c-2.1,0.2-3-0.5-3.2-2.6
	c-0.3-2.3,0.2-4.6,0.9-6.8c0.2-0.6,0.4-1.3,0.7-2.2c-1.7,1.4-3.1,2.7-4.7,3.7c-2.5,1.6-5,3.2-7.6,4.5c-2.4,1.2-3.8,0.2-3.7-2.5
	c0-1.4,0.6-2.8,1.1-4.1c0.3-0.7,0.8-1.4,1.3-2.2c-2.1,0.6-4,1.2-6,1.6c-2.5,0.5-5,0.8-7.5,1.3c-0.6,0.1-1.2,0.5-1.7,0.9
	c-1.6,1.5-3,3.3-4.6,4.7c-1,0.9-2.4,1.5-3.7,1.9c-2.1,0.6-3.2-0.2-3.7-2.4c-0.5-2.2,0.1-4.3,0.9-6.3c0.2-0.5,0.5-1.1,0.8-1.7
	c-2.2,0.6-4.2,1.3-6.3,1.7c-2.5,0.5-5,0.8-7.4,1.2c-0.6,0.1-1.3,0.5-1.8,1c-1.7,1.6-3.2,3.5-5,4.9c-1.1,0.9-2.5,1.3-3.9,1.7
	c-1.5,0.3-2.3-0.3-2.8-1.8c-0.8-2.2-0.3-4.5,0.5-6.5c1.8-4.3,4.5-8.1,8-11.3c1.3-1.2,4.8-0.8,5.8,0.6c0.4,0.5,0.3,0.9-0.4,0.9
	c-2.2,0-3.8,1.2-5,2.9c-1.7,2.2-3.5,4.5-5,6.8c-0.7,1.1-0.8,2.5-1.1,3.9c-0.1,0.7,0.3,1,1,0.8c2.6-0.7,4.6-2.1,6-4.4
	c-1.2-1.5-1.3-2.3,0-3.7c0.9-1,2-1.8,3-2.7c0.4-0.3,0.9-0.4,1.3-0.5c1.6-0.3,2.2,0.4,1.6,2c-0.3,0.7-0.7,1.4-1.2,2.3
	c1,0,1.8,0.1,2.5,0c4-0.5,7.8-1.5,11.6-3c0.4-0.2,0.8-0.5,1.1-0.9c1.5-1.7,2.9-3.5,4.5-5.1c1.5-1.5,5.3-0.7,6.1,1.3
	c-0.2,0.1-0.4,0.2-0.6,0.2c-1.9,0-3.4,0.9-4.6,2.3c-1.9,2.4-3.8,4.8-5.5,7.4c-0.7,1-0.9,2.3-1.2,3.5c-0.2,1.1,0.3,1.5,1.4,1.2
	c2.5-0.7,4.4-2.1,5.8-4.3c-1.2-1.3-1.3-2.1-0.2-3.5c0.9-1,1.9-1.9,3-2.8c0.3-0.3,0.7-0.5,1.1-0.5c0.7,0,1.6-0.2,2,0.2
	c0.3,0.3,0.1,1.3-0.1,2c-0.2,0.6-0.6,1.2-0.9,1.8c0.1,0.1,0.1,0.3,0.2,0.4c1.8-0.2,3.6-0.3,5.4-0.7c2.3-0.5,4.6-1.3,6.9-1.9
	c1.7-0.5,3.1-1.4,4.5-2.6c1.8-1.7,3.9-3.2,6-4.5c2.1-1.3,3.6-0.5,4.3,1.8c0.2,0.7,0.1,0.9-0.7,0.9c-0.8,0-1.8,0.1-2.5,0.5
	c-5.1,2.7-8.8,6.9-11.7,11.7C672.1,198.4,672.1,198.7,671.9,199.3z"/>
<path fill="#C9C9C9" d="M97.8,171.9c-0.8,0.6-1.6,1.2-2.3,1.9c-2.9,3.2-5.8,6.5-8.7,9.8c-3.6,4.1-7.2,8.1-11.7,11.3
	c-1,0.7-2.1,1.3-3.3,1.7c-2.1,0.7-3.4,0-4.4-2c-1.2-2.6-1.2-5.4-0.6-8.1c1.7-7.3,4.7-14.1,8.6-20.4c1.9-3.1,3.9-6.1,6-8.9
	c2-2.7,4.8-4.3,8.4-4c0.4,0,0.8,0.2,1.4,0.3c-0.3,0.5-0.4,0.9-0.7,1.1c-6.9,6.3-11.6,14.3-15.8,22.4c-1.9,3.6-3.2,7.5-4.6,11.3
	c-0.4,1.1-0.5,2.3-0.6,3.4c-0.1,1.6,0.4,2.1,1.9,1.4c1-0.4,1.9-1,2.7-1.7c5.4-4.5,10.2-9.7,14.9-15c3.7-4.2,7.3-8.4,11.9-11.6
	c1.7-1.2,3.4-2.3,5.5-2.5c0.6-0.1,1.5,0,1.8,0.4c0.3,0.3,0,1.3-0.3,1.7c-7.9,13.5-15,27.5-23.9,40.5c-4.8,7-9.9,13.6-16.3,19.1
	c-1.3,1.1-2.7,2-4.1,2.9c-0.3,0.2-0.8,0.1-1.2,0.1c0-0.5-0.2-1-0.1-1.3c0.5-1,1-1.9,1.7-2.7c1.2-1.4,2.4-2.8,3.7-3.9
	c5-4.1,8.7-9.3,12.2-14.7c6.6-9.9,12.3-20.2,17.5-30.8c0.2-0.4,0.3-0.9,0.5-1.3C98.1,172.2,97.9,172,97.8,171.9z"/>
<path fill="#C9C9C9" d="M366.8,192.4c-2.4,0.7-4.6,1.5-6.9,2c-2.8,0.6-5.6,0.9-8.4,1.5c-0.6,0.1-1.2,0.5-1.7,0.9
	c-1.5,1.5-2.8,3.2-4.5,4.5c-1.1,0.9-2.6,1.6-4,2c-1.9,0.6-3-0.2-3.5-2.1c-0.6-2,0-4,0.6-5.9c0.1-0.4,0.3-0.8,0.6-1.5
	c-0.6,0.3-0.9,0.4-1.3,0.6c-4.8,2.1-9.6,4.2-14.4,6.2c-0.9,0.4-1.8,0.6-2.8,0.7c-2.2,0.3-3.4-0.6-3.8-2.8c-0.2-0.9-0.2-1.8-0.4-2.8
	c-0.4,0.2-0.7,0.4-0.9,0.6c-3,2.1-5.9,4.3-8.9,6.3c-0.9,0.6-2,1.1-3,1.4c-2.2,0.6-4.6-2-3.5-4.1c0.8-1.5,1.5-3.1,2.6-4.4
	c3.2-3.9,6.7-7.4,10.8-10.3c1.7-1.2,3.7-2.2,5.7-2.9c2.1-0.7,5,2.1,4.6,4.4c-0.4-0.1-0.8-0.2-1.1-0.3c-1.7-1-3.4-0.8-5.2,0.1
	c-3.3,1.7-6.1,4.1-8.7,6.7c-1.7,1.7-3.2,3.6-4.7,5.4c-0.3,0.3-0.3,0.9-0.4,1.4c0.5,0,1.1,0.2,1.5,0c2.5-1.4,5.1-2.7,7.5-4.3
	c2.6-1.6,5.1-3.3,6.9-5.9c0.7-0.9,3.2-0.9,3.8,0c0.2,0.3,0.1,1-0.2,1.3c-0.9,1.3-1.9,2.5-2.8,3.9c-0.5,0.8-0.9,1.6-1.1,2.5
	c-0.3,1,0.1,1.4,1.1,1.2c1.3-0.3,2.6-0.6,3.8-1.1c5.6-2.4,11.1-5,16.6-7.5c0.4-0.2,0.8-0.6,1.1-1c1.6-1.8,3.1-3.6,4.7-5.3
	c1.1-1.2,4.8-0.6,5.7,0.7c0.3,0.5,0.3,0.9-0.4,0.9c-2.4,0-4,1.5-5.4,3.2c-1.8,2.3-3.5,4.7-5,7.1c-0.6,0.9-0.7,2.1-0.8,3.2
	c-0.1,0.7,0.3,1.1,1.1,0.9c2.6-0.7,4.6-2.1,6-4.4c-1.2-1.4-1.3-2.2-0.1-3.6c0.9-1,2-1.9,3.1-2.8c0.4-0.3,0.9-0.4,1.3-0.5
	c1.5-0.3,2.1,0.4,1.6,1.9c-0.1,0.4-0.4,0.8-0.6,1.2c-0.2,0.3-0.3,0.7-0.7,1.4c1.7-0.1,3.1-0.1,4.4-0.4c3.7-1,7.3-2.1,11-3.3
	c0.5-0.1,0.9-0.6,1.2-1c1.5-2.7,2.5-5.5,2.8-8.6c0-0.3,0.1-0.5,0.2-0.8c2.4,0.1,3.6,1.7,3,4c-0.3,1.1-0.8,2.1-1.1,3.2
	c6.2-4.5,12.5-8.6,20.6-8.6c-0.3,0.2-0.6,0.6-1,0.7c-6,2.3-11.1,6-16.3,9.8c-5.8,4.3-10.4,9.6-14.2,15.8c-0.1,0.2-0.5,0.6-0.6,0.6
	c-0.3-0.1-0.6-0.4-0.7-0.7c-0.5-1.1-0.5-2.2,0.1-3.2c1-1.8,2.1-3.6,3.2-5.4C365.7,194.2,366.2,193.4,366.8,192.4z"/>
<path fill="#C9C9C9" d="M275.5,168.7c2.3-0.4,4.4-0.8,6.4-1c2.4-0.3,4.8-0.6,7.1-0.8c0.8-0.1,2-0.5,2.1,1c0.1,1.5-1.2,3-2.4,2.8
	c-4.6-0.8-9,0.1-13.4,0.8c-1,0.2-1.8,0.6-2.4,1.5c-5.8,8.4-11.5,16.9-15.7,26.3c-0.7,1.6-1.2,3.2-1.6,4.9c-0.6,2.4,0.5,3.5,2.7,2.7
	c2.5-0.9,5-2,7.4-3.4c5.4-3.1,10.7-6.5,16.1-9.7c0.5-0.3,1-0.6,1.5-0.8c2.1-0.6,3.2-2.1,4.2-4c1.6-2.9,2.8-5.9,3.1-9.2
	c0.1-0.6,0.3-0.8,0.9-0.6c1.9,0.5,2.8,1.9,2.3,3.8c-0.3,1.1-0.8,2.1-1.3,3.6c6.4-4.8,12.7-8.8,20.8-8.9c-0.3,0.2-0.6,0.6-0.9,0.7
	c-6.4,2.5-11.8,6.5-17.2,10.6c-5.4,4.1-9.6,9.2-13.2,14.9c-0.2,0.3-0.6,0.7-0.7,0.6c-0.3-0.2-0.6-0.5-0.8-0.8
	c-0.5-1-0.4-2.1,0.1-3.1c0.8-1.6,1.7-3.1,2.7-4.9c-0.7,0.4-1.2,0.7-1.6,1c-5.2,3.4-10.4,7-15.8,10.3c-2.4,1.5-4.9,2.7-7.5,3.7
	c-3.7,1.5-5.2,0.2-5.5-3.7c-0.4-5.5,1.5-10.3,4.1-14.9c2.9-4.9,6-9.7,9-14.6c1-1.6,1.8-3.2,2.9-5c-0.8,0.1-1.3,0.1-1.8,0.2
	c-2.9,0.1-5.7,0.5-8.6,0.3c-2.4-0.1-4.5-1.2-5.8-3.4c-0.4-0.7-0.4-1.6-0.5-2.4c0.7,0.1,1.6,0.1,2.2,0.5c3.5,2.7,7.5,2.7,11.7,2.5
	c2.9-0.1,5.3-0.7,6.6-3.8c1.1-2.4,2.6-4.7,3.9-7c0.7-1.2,3.1-2.1,4.3-1.3c1,0.6,0.5,1.4,0.1,2.1c-0.9,1.4-1.8,2.7-2.7,4.1
	c-0.7,1.1-1.4,2.2-2.1,3.4C275.9,167.7,275.7,168.1,275.5,168.7z"/>
<path fill="#C9C9C9" d="M204.6,180.8c-1.3,0.3-2.3,0.6-3.3,0.8c-0.6,0.1-1.2,0.2-1.8,0.3c0.1-0.6,0.2-1.3,0.4-1.9
	c1-2.5,3.2-3.3,5.6-3.4c1.6-0.1,2.3-0.8,3.1-2.1c2.4-4.2,5.1-8.2,7.6-12.3c0.2-0.4,0.4-0.7,0.7-1.3c-0.9-0.1-1.6-0.1-2.3-0.2
	c-1.1-0.1-1.3-0.5-0.7-1.4c1.1-1.7,2.8-2.6,4.7-2.7c7.5-0.5,14.9-0.7,22.4,0c0.9,0.1,1.8,0.2,2.7,0.5c0.9,0.2,1.1,0.9,0.4,1.5
	c-0.6,0.5-1.5,1-2.3,1c-5.7,0.2-11.5,0.3-17.3,0.6c-0.6,0-1.5,0.4-1.8,0.8c-3.2,4.4-6.4,8.9-9.5,13.4c-0.3,0.4-0.4,0.8-0.8,1.5
	c2.4-0.2,4.5-0.4,6.6-0.4c2.9-0.1,5.9-0.1,8.9-0.1c0.5,0,1.3,0.4,1.4,0.7c0.1,0.5-0.2,1.1-0.6,1.6c-0.7,0.9-1.6,1-2.7,1
	c-2.9,0-5.8,0.2-8.7,0.5c-2,0.2-4,0.5-6,0.9c-0.5,0.1-1.2,0.5-1.4,0.9c-3.4,6-6.9,12-9.5,18.4c-0.4,0.9-0.7,1.9-1,2.8
	c-0.3,1.2-0.1,1.5,1.2,1.4c3.9-0.2,7.8-0.5,11.7-0.6c2.8-0.1,5.7,0,8.5,0.1c1,0,1.7,0.6,2.1,1.4c0.2,0.5,0.3,1.1,0.1,1.6
	c-0.1,0.2-0.8,0.3-1.2,0.3c-4.3,0.1-8.7,0.1-13,0.4c-4.8,0.4-9.6,1.2-14.4,1.8c-1.9,0.2-2.4-0.5-1.6-2.2c0.2-0.5,0.5-1.1,0.9-1.5
	c1.4-1.4,2-3.2,2.8-4.9c2.6-5.8,5.3-11.6,7.9-17.5C204.2,181.8,204.3,181.5,204.6,180.8z"/>
<path fill="#C9C9C9" d="M772,156.8c2,0.2,3.8,0.9,4.9,2.8c0.6,1.1,0.3,1.6-0.8,1.7c-1.9,0.2-3.8,0.3-5.6,0.8
	c-11.5,3.1-21.7,8.5-30.6,16.3c-3.1,2.7-2.9,4,0.9,5.6c3.5,1.5,7.2,2.7,10.7,4.1c2,0.8,4,1.7,5.8,2.8c2.7,1.6,3.3,3.8,1.7,6.4
	c-1,1.8-2.3,3.5-3.9,4.9c-7.4,6.7-16,11.4-25.7,14.1c-0.9,0.2-1.8,0.3-2.7,0.5c-0.8,0.1-1.1-0.3-0.8-1c0.6-1.3,1.5-2.4,2.9-2.7
	c7.1-1.6,13.2-5.2,18.8-9.7c1.7-1.4,3.3-3,4.7-4.7c2.1-2.6,1.8-4.3-1.2-5.6c-3.7-1.7-7.6-3-11.5-4.4c-1.2-0.5-2.5-0.8-3.8-1.2
	c-3.6-1.2-4.7-4-2.4-7.1c1.5-2,3.3-3.9,5.3-5.5c8.9-7.3,18.8-12.7,29.4-16.9c0.9-0.3,1.8-0.6,2.6-0.8
	C771.1,156.9,771.5,156.9,772,156.8z"/>
<path fill="#C9C9C9" d="M619.1,160.5c-1.6,0-2.8,0-4,0c-0.4,0-0.8,0.1-1.2,0.1c-0.3,0-0.7-0.1-0.8-0.3c-0.1-0.2,0-0.6,0.2-0.9
	c0.9-1.2,2.1-2.1,3.7-2.2c0.6,0,1.2-0.1,1.8-0.1c1.8,0.1,3.4,0,4.8-1.5c0.7-0.7,1.9-0.9,3-1.1c1.6-0.3,1.8,0,1.3,1.8
	c1.5,0,2.9,0,4.3,0c4,0.1,7.9,0.2,11.9,0.3c0.9,0,1.5,0.5,1.7,1.4c0.3,1.6-0.1,1.9-1.7,1.7c-1.8-0.2-3.7-0.3-5.5-0.2
	c-4.2,0.2-8.4,0.4-12.6,0.7c-0.4,0-1,0.3-1.3,0.7c-3.1,4.4-6.2,8.8-9.2,13.2c-0.2,0.3-0.2,0.6-0.3,1c0.3,0.1,0.7,0.2,1,0.2
	c2.9,0,5.8-0.1,8.7-0.1c1.4,0,2.6,0.6,3.1,2c0.4,1,0.1,1.4-0.9,1.3c-4.7-0.4-9.3,0.4-14,1c-0.5,0.1-1.2,0.4-1.5,0.8
	c-5.3,7.9-10.6,15.7-13.9,24.7c-0.9,2.6-1.7,5.2-1.8,7.9c0,0.4-0.4,0.8-0.7,1.3c-0.4-0.3-1-0.5-1.2-0.9c-1.4-2.4-1.4-5-0.8-7.7
	c0.7-3.1,2.3-5.7,3.8-8.4c2.8-5.1,5.6-10.1,8.5-15.2c0.3-0.5,0.5-1,0.7-1.5c-0.1-0.1-0.1-0.3-0.2-0.4c-1.2,0.3-2.5,0.5-3.7,0.8
	c-0.7,0.1-1.5,0.2-2.3,0.3c0.3-0.8,0.4-1.7,0.8-2.4c1.3-1.7,3-2.8,5.2-2.8c2.3,0,3.6-0.9,4.8-2.9c2.1-3.7,4.6-7.2,6.9-10.8
	C618.2,162,618.5,161.4,619.1,160.5z"/>
<path fill="#C9C9C9" d="M143.1,195.6c-1.8,1.4-3.6,2.9-5.5,4.2c-2,1.4-4,2.8-6.1,4c-2.6,1.5-4.4,0.4-4.8-2.6c-0.4-2.5,0.1-4.8,1-7
	c0.2-0.4,0.3-0.8,0.6-1.4c-0.5,0.1-0.8,0.2-1.2,0.3c-4.2,1.3-8.4,2.5-12.9,2.7c-0.5,0-1.2,0.4-1.6,0.8c-1.7,1.7-3.3,3.5-5.1,5
	c-1.1,0.9-2.5,1.3-3.9,1.7c-1.5,0.3-2.3-0.3-2.8-1.8c-0.7-1.9-0.4-3.8,0.2-5.6c1.7-4.8,4.7-8.9,8.5-12.3c1.2-1.1,4.6-0.5,5.6,0.8
	c0.4,0.5,0.3,0.9-0.4,1c-2.2,0-3.8,1.2-5,2.9c-1.8,2.3-3.5,4.5-5.1,6.9c-0.6,1-0.8,2.4-1,3.6c-0.2,0.8,0.3,1.2,1.2,0.9
	c2.5-0.7,4.5-2.1,5.9-4.3c-1.2-1.6-1.2-2.3,0.1-3.8c0.9-1,1.9-1.8,3-2.6c0.4-0.3,0.9-0.4,1.3-0.5c1.6-0.3,2.2,0.4,1.6,1.9
	c-0.3,0.7-0.7,1.4-1.3,2.5c1.7-0.1,3.1-0.1,4.4-0.4c3.2-0.8,6.4-1.7,9.6-2.7c0.4-0.1,0.8-0.6,1.1-0.9c1.9-2.5,3.8-5.1,5.7-7.7
	c0.9-1.2,1.9-1.1,3,0c0.9,0.9,0.8,1.8-0.2,2.8c-4.2,4-7.4,8.6-9.3,14c-0.2,0.6-0.2,1.4-0.2,2.1c0.7-0.1,1.5,0,2.2-0.2
	c5.8-2.3,10.6-6,14.6-10.8c1.3-1.6,3-1.8,4.8-1.5c0.7,0.1,0.9,0.5,0.6,1.2c-0.2,0.3-0.4,0.6-0.6,0.9c-2.4,3.6-4.7,7.3-7.1,10.9
	c-0.2,0.2-0.4,0.4-0.7,0.6c-0.2-0.2-0.5-0.5-0.5-0.7c0-1.1,0.1-2.3,0.2-3.4c0.1-0.5,0.3-1,0.5-1.5
	C143.3,195.7,143.2,195.7,143.1,195.6z"/>
<path fill="#C9C9C9" d="M560.2,196c-0.4,0.3-0.8,0.6-1.2,0.9c-2.8,1.8-5.5,3.6-8.3,5.4c-0.4,0.3-0.9,0.4-1.3,0.6
	c-3.1,1.3-4.8,0.2-5-3.4c-0.1-2.1,0.6-4.4,1.4-6.4c2.1-5.2,5.3-9.7,9-13.9c1.4-1.6,3.1-2,5.1-1.2c0.9,0.4,1,0.8,0.3,1.4
	c-5.4,4.4-9.2,10.1-12.2,16.2c-0.5,1-0.7,2.1-0.9,3.2c-0.2,0.9,0.4,1.3,1.2,1.1c1-0.2,2.1-0.5,3.1-0.9c4.2-2,8.1-4.6,11.6-7.8
	c1-0.9,1.8-2.1,2.5-3.2c1.1-1.8,3.7-1.9,5.3-1.3c0.9,0.4,0.6,0.9,0.1,1.5c-2,2.8-4.1,5.4-5.9,8.3c-6.3,10.7-12.5,21.6-18.8,32.3
	c-0.4,0.7-1.1,1.2-1.6,1.7c-0.2-0.8-0.6-1.6-0.6-2.4c0.1-2.3,0.8-4.3,2.4-6.1c0.9-1,1.5-2.3,2.1-3.5c3.8-6.9,7.6-13.9,11.4-20.8
	c0.3-0.5,0.5-1.1,0.8-1.6C560.4,196.1,560.3,196,560.2,196z"/>
<path fill="#C9C9C9" d="M877.6,191c0.4,1.5-0.1,2.9-1.4,3.7c-3.2,1.8-6.4,3.8-9.8,5.3c-4.4,2-8.9,3.9-13.6,5.3
	c-5.9,1.7-9.7-2.3-8-8.2c2.1-6.9,6.2-12.5,12.4-16.3c1.5-0.9,3.1-1.6,4.7-0.2c1.7,1.4,2.3,3.5,1.6,5.6c-0.8,2.3-2.5,4-4.4,5.4
	c-2.8,2.2-6,3.6-9.5,4.5c-1.2,0.3-1.8,0.9-2.1,2c-0.2,0.8-0.5,1.6-0.6,2.4c-0.2,1.6,0.5,2.6,2.1,2.5c1.8-0.1,3.6-0.4,5.3-0.9
	c6.7-2.1,12.8-5.5,19-8.8C874.8,192.6,876.1,191.8,877.6,191z M850.1,193.3c0.7-0.2,1.1-0.2,1.5-0.4c3.3-1.6,6.2-3.7,8.4-6.8
	c0.3-0.5,0.6-1.1,0.7-1.6c0.1-0.4,0.1-1.1-0.1-1.3c-0.3-0.2-0.9-0.1-1.3,0c-0.8,0.4-1.6,0.8-2.2,1.4c-2.1,2.3-4.1,4.7-6.1,7
	C850.7,192,850.5,192.5,850.1,193.3z"/>
<path fill="#C9C9C9" d="M257.4,54.3c-2.7,0-4.5-1.2-5.9-3c-2.6-3.3-2.2-8.3,0.8-11.3c2.8-2.7,6.9-2.7,9.7,0c4.5,4.4,2.7,12.4-3.1,14
	C258.2,54.2,257.6,54.2,257.4,54.3z"/>
<path fill="#C9C9C9" d="M262.6,176.8c-0.3,0.2-0.6,0.5-1,0.7c-6.7,2.9-12.4,7.4-18,11.9c-0.3,0.3-0.7,0.8-0.7,1.2
	c0.2,3.4,0.4,6.8,0.7,10.1c0.1,0.7,0.6,1.5,1,2.1c0.4,0.6,0.4,1-0.2,1.2c-0.9,0.3-1.9,0.6-2.9,0.7c-1,0.1-1.2-0.9-1.2-1.6
	c-0.3-2.4-0.5-4.8-0.7-7.3c-0.1-1,0-2,0-3.2c-0.6,0.3-1,0.4-1.3,0.7c-2.8,2.3-5.5,4.6-8.2,6.9c-0.7,0.6-1.5,1.2-2.4,1.7
	c-0.5-1.8-0.5-3.4,0.8-4.6c1.7-1.6,3.6-3.1,5.4-4.5c1.5-1.1,3.1-2.1,4.6-3.2c0.3-0.3,0.7-0.9,0.6-1.3c-0.1-1.6-0.3-3.3-0.7-4.8
	c-0.1-0.6-0.7-1.1-1-1.7c-0.1-0.3-0.2-0.8-0.1-1c0.2-0.3,0.6-0.5,0.9-0.7c2.5-1.5,3.4-1.2,3.9,1.7c0.2,1.5,0.3,3.1,0.4,4.8
	c6.4-3.9,12.2-8.8,19.7-10.2C262.4,176.4,262.5,176.6,262.6,176.8z"/>
<path fill="#C9C9C9" d="M163.4,186c6.3-4.4,12.6-8.4,20.7-8.6c-0.3,0.3-0.7,0.6-1,0.8c-6.5,2.6-12.1,6.7-17.7,11
	c-5.2,4-9.2,9.1-12.7,14.6c-0.2,0.3-0.5,0.6-0.7,0.6c-0.3-0.1-0.7-0.4-0.7-0.7c-0.1-0.9-0.3-2,0-2.8c0.7-1.7,1.7-3.3,2.7-4.9
	c1.9-3.2,4-6.4,5.6-9.7c0.9-1.9,1.3-4.2,1.8-6.3c0.2-0.9,0.5-1.1,1.3-0.8c1.7,0.6,2.5,1.8,2,3.6C164.3,183.8,163.8,184.9,163.4,186z
	"/>
<path fill="#C9C9C9" d="M440.6,170.9c0,1.1-1,2.2-2.6,2.6c-0.8,0.2-1.5,0.5-2.3,0.7c-0.9,0.3-1.6-0.3-1.4-1.1c0.2-0.7,0.5-1.6,1.1-2
	c0.9-0.7,2-1.3,3.1-1.7C439.8,168.7,440.6,169.4,440.6,170.9z"/>
<path fill="#C9C9C9" d="M424.4,110.3c-0.1,7.8-2.2,14.9-7.7,20.8c-3.9,4.2-8.8,6.8-14.5,8c-6.6,1.4-13.2,1.2-19.6-1.1
	c-10-3.7-15.8-11.1-17.6-21.5c-1.2-6.8-0.7-13.5,2.3-19.8c4.1-8.8,11.3-13.8,20.8-15.4c6.5-1.1,12.9-0.7,19.1,1.8
	c10,4.1,15.3,11.9,16.9,22.4C424.3,107,424.3,108.7,424.4,110.3z M412.1,110.7c0-2.1-0.5-5.6-1.5-9c-1.6-5.4-4.2-10.2-8.9-13.5
	c-3.9-2.7-8.3-3.8-13-2.6c-4.3,1.1-7,4.2-8.8,8.1c-3.2,6.8-3.8,14-2.5,21.4c0.9,5.4,2.9,10.4,6.6,14.5c3.8,4.2,8.5,6.2,14.1,5.7
	c5.1-0.4,8.3-3.6,10.6-7.9C411.2,122.7,412.1,117.5,412.1,110.7z"/>
</svg>
