<?xml version="1.0" encoding="utf-8"?>
<!-- Generator: Adobe Illustrator 18.1.1, SVG Export Plug-In . SVG Version: 6.00 Build 0)  -->
<svg version="1.1" id="Layer_1" xmlns="http://www.w3.org/2000/svg" xmlns:xlink="http://www.w3.org/1999/xlink" x="0px" y="0px"
	 viewBox="92 -10.2 383.3 85.2" enable-background="new 92 -10.2 383.3 85.2" xml:space="preserve">
<path fill="#C9C9C9" d="M342,58.8c-16.1,0-26.1-17.8-26.1-34.4c0-16.6,10-34.4,26.1-34.4c16.1,0,26.1,17.8,26.1,34.4
	C368.1,41.1,358,58.8,342,58.8 M342-7c-10.3,0-14.8,18.6-14.8,31.4c0,12.8,4.5,31.4,14.8,31.4c10.3,0,14.8-18.6,14.8-31.4
	C356.8,11.6,352.3-7,342-7"/>
<path fill="#C9C9C9" d="M410.9,39.1V-2.5c0-1.6-0.2-3.2-3.9-3.2c-0.4,0-1-0.2-1-1.3c0-1,0.7-1.3,1-1.3h11.9c0.4,0,1,0.2,1,1.3
	c0,1.1-0.7,1.3-1,1.3c-3.7,0-3.9,1.9-3.9,3.2v57.8c0,2.6-2.6,6.4-5.9,0.9c-3.3-5.5-30.6-51-30.6-51v45.6c0,2.6,2.2,3.4,5.9,3.4
	c0.4,0,1,0.2,1,1.3c0,1-0.7,1.3-1,1.3H369c-0.4,0-1-0.2-1-1.3c0-1.1,0.6-1.3,1-1.3c3.7,0,5.9-1,5.9-3.4V-2.3c0-2.4-2.1-3.4-5.9-3.4
	c-0.4,0-1-0.2-1-1.3c0-1,0.6-1.3,1-1.3h12.2c1.1,0,1.8-0.1,2.8,1.3C384.9-5.6,410.9,39.1,410.9,39.1"/>
<path fill="#C9C9C9" d="M314.2,56.8c0.4,0,1-0.2,1-1.3c0-1.1-0.7-1.3-1-1.3c-3.7,0-5.9-1-5.9-3.4V-2.3c0-2.4,2.2-3.4,5.9-3.4
	c0.4,0,1-0.2,1-1.3c0-1-0.7-1.3-1-1.3h-21.8c-0.4,0-1,0.3-1,1.3c0,1.1,0.6,1.3,1,1.3c3.7,0,5.9,1,5.9,3.4v53.3
	c0,2.4-2.1,3.4-5.9,3.4c-0.4,0-1,0.2-1,1.3c0,1,0.6,1.3,1,1.3H314.2z"/>
<path fill="#C9C9C9" d="M266.5,45.7v-48c0-2.4,2.2-3.4,5.9-3.4c0.4,0,1-0.2,1-1.3c0-1-0.7-1.3-1-1.3h-21.8c-0.4,0-1,0.3-1,1.3
	c0,1.1,0.6,1.3,1,1.3c3.7,0,5.9,1,5.9,3.4v53.3c0,2.4-2.1,3.4-5.9,3.4c-0.4,0-1,0.2-1,1.3c0,1,0.6,1.3,1,1.3h37.3c0.4,0,1-0.2,1-1.3
	V41.2c0-1.5-1.9-1.5-1.9,0c0,1.5-1.9,13.3-13.6,13.3C267.9,54.5,266.5,52.2,266.5,45.7"/>
<path fill="#C9C9C9" d="M244.2,56.8c0.4,0,1-0.2,1-1.3c0-1.1-0.6-1.3-1-1.3c-3.7,0-5.9-1-5.9-3.4V-2.3c0-2.4,2.1-3.4,5.9-3.4
	c0.4,0,1-0.2,1-1.3c0-1-0.6-1.3-1-1.3h-21.8c-0.4,0-1,0.3-1,1.3c0,1.1,0.7,1.3,1,1.3c3.7,0,5.9,1,5.9,3.4v53.3
	c0,2.4-2.1,3.4-5.9,3.4c-0.4,0-1,0.2-1,1.3c0,1,0.7,1.3,1,1.3H244.2z"/>
<path fill="#C9C9C9" d="M204,53.2l17.2-55.5c0.7-2.6,1.5-3.4,5.2-3.4c0.4,0,1-0.2,1-1.3c0-1-0.6-1.3-1-1.3h-15.8c-0.4,0-1,0.2-1,1.3
	c0,1.1,0.6,1.3,1,1.3c3.7,0,5.9,1,5.9,3.4l-12.1,40.9L192.1-2.3c0-2.4,1.1-3.4,4.8-3.4c0.4,0,1-0.2,1-1.3c0-1-0.7-1.3-1-1.3h-21.8
	c-0.4,0-1,0.2-1,1.3c0,1.1,0.7,1.3,1,1.3c3.7,0,5.5,0.9,6.3,3.4l16.5,55.5C199.2,56.9,201,62.1,204,53.2"/>
<path fill="#C9C9C9" d="M462.4,11.1c0,1.8-0.6,2.6-2.1,2.6c-2.4,0-2.2-3.3-5.8-12.1c-2.3-5.6-4.7-8.3-10.6-8.3
	c-6.6,0-11.1,5.2-11.1,13.2c0,7.5,2.8,9.2,15.6,18.5c9.8,7.2,18.1,13.6,18.1,25.3c0,12.3-9.2,24.5-27.3,24.5
	c-6.4,0-17.4-2.6-17.4-7.3c0-19.2,0.8-20.1,2.9-20.1c2.8,0,1.4,2.8,5,12c3.1,7.8,7.4,11.8,14.1,11.8c7.7,0,13.3-5.8,13.3-14.2
	c0-22.6-34.2-19.8-34.2-45.9c0-10.1,8.6-20.4,22.2-20.4c9.2,0,15.7,1.8,16.6,3.1c0.6,0.9,0.6,2.1,0.6,3.7L462.4,11.1L462.4,11.1z"/>
<path fill="#C9C9C9" d="M190.1,54.3c-3.7,0-5.4-0.9-6.3-3.4L167.3-4.6c-1.3-3.7-3.2-8.9-6.1,0L144,51c-0.7,2.6-1.5,3.4-5.2,3.4
	c-0.4,0-1,0.2-1,1.3c0,1,0.7,1.3,1,1.3h15.8c0.4,0,1-0.2,1-1.3c0-1.1-0.6-1.3-1-1.3c-3.7,0-5.9-1-5.9-3.4l4.9-16.5h14.6l5,16.5
	c0,2.4-1.1,3.4-4.8,3.4c-0.4,0-1,0.2-1,1.3c0,1,0.7,1.3,1,1.3h21.8c0.4,0,1-0.2,1-1.3C191.2,54.5,190.5,54.3,190.1,54.3 M154.6,31.2
	l6.2-21.1l6.4,21.1H154.6z"/>
<path fill="#C9C9C9" d="M146.8,13.2c0,12.6-7.8,23-20.6,23c-5.2,0-9.5-0.6-11.9-1.6v32.5c0,2.4,4.8,3.4,8.5,3.4c0.4,0,1,0.2,1,1.3
	c0,1-0.7,1.3-1,1.3H95.1c-0.4,0-1-0.2-1-1.3c0-1.1,0.7-1.3,1-1.3c3.7,0,7-1,7-3.4V-3.6c0-2.4-3.3-3.4-7-3.4c-0.4,0-1-0.2-1-1.3
	c0-1,0.7-1.3,1-1.3h27.8C134.5-9.5,146.8,0.1,146.8,13.2 M114.6,28.8c0,3.1,1.6,3.8,5.4,3.8c7.9,0,14.1-8.3,14.1-20.4
	c0-12.4-6.1-19.1-12-19.1c-5.8,0-7.5,1.9-7.5,5.3V28.8z"/>
<path fill="#C9C9C9" d="M341.3,58.9c-16.2,0-26.3-17.9-26.3-34.6c0-16.7,10.1-34.6,26.3-34.6c16.2,0,26.3,17.9,26.3,34.6
	C367.6,41.1,357.5,58.9,341.3,58.9 M341.3-7.2c-10.4,0-14.9,18.7-14.9,31.6c0,12.9,4.5,31.6,14.9,31.6c10.4,0,14.9-18.7,14.9-31.6
	C356.3,11.5,351.7-7.2,341.3-7.2"/>
<path fill="#C9C9C9" d="M410.7,39.1V-2.7c0-1.7-0.2-3.2-3.9-3.2c-0.4,0-1-0.2-1-1.3c0-1,0.7-1.3,1-1.3h12c0.4,0,1,0.2,1,1.3
	c0,1.1-0.6,1.3-1,1.3c-3.7,0-3.9,1.9-3.9,3.2v58.2c0,2.7-2.7,6.5-5.9,0.9C405.5,50.9,378,5.1,378,5.1V51c0,2.7,2.2,3.4,5.9,3.4
	c0.4,0,1,0.2,1,1.3c0,1-0.7,1.3-1,1.3h-15.4c-0.4,0-1-0.3-1-1.3c0-1.1,0.7-1.3,1-1.3c3.7,0,5.9-1,5.9-3.4V-2.5
	c0-2.4-2.2-3.4-5.9-3.4c-0.4,0-1-0.2-1-1.3c0-1,0.7-1.3,1-1.3h12.3c1.1,0,1.8-0.1,2.8,1.3C384.5-5.8,410.7,39.1,410.7,39.1"/>
<path fill="#C9C9C9" d="M313.4,57c0.4,0,1-0.2,1-1.3c0-1.1-0.6-1.3-1-1.3c-3.7,0-5.9-1-5.9-3.4V-2.6c0-2.4,2.2-3.4,5.9-3.4
	c0.4,0,1-0.2,1-1.3c0-1-0.6-1.3-1-1.3h-21.9c-0.4,0-1,0.3-1,1.3c0,1.1,0.7,1.3,1,1.3c3.7,0,5.9,1,5.9,3.4V51c0,2.4-2.2,3.4-5.9,3.4
	c-0.4,0-1,0.2-1,1.3c0,1,0.7,1.3,1,1.3C291.5,57,313.4,57,313.4,57z"/>
<path fill="#C9C9C9" d="M265.4,45.7V-2.5c0-2.4,2.2-3.4,5.9-3.4c0.4,0,1-0.2,1-1.3c0-1-0.7-1.3-1-1.3h-21.9c-0.4,0-1,0.2-1,1.3
	c0,1.1,0.6,1.3,1,1.3c3.7,0,5.9,1,5.9,3.4V51c0,2.4-2.2,3.4-5.9,3.4c-0.4,0-1,0.2-1,1.3c0,1,0.6,1.3,1,1.3h37.5c0.4,0,1-0.2,1-1.3
	V41.2c0-1.5-1.9-1.5-1.9,0s-1.9,13.4-13.7,13.4C266.8,54.6,265.4,52.3,265.4,45.7"/>
<path fill="#C9C9C9" d="M243,57c0.4,0,1-0.2,1-1.3c0-1.1-0.7-1.3-1-1.3c-3.7,0-5.9-1-5.9-3.4V-2.6c0-2.4,2.2-3.4,5.9-3.4
	c0.4,0,1-0.2,1-1.3c0-1-0.7-1.3-1-1.3h-21.9c-0.4,0-1,0.3-1,1.3c0,1.1,0.6,1.3,1,1.3c3.7,0,5.9,1,5.9,3.4V51c0,2.4-2.2,3.4-5.9,3.4
	c-0.4,0-1,0.2-1,1.3c0,1,0.6,1.3,1,1.3C221.1,57,243,57,243,57z"/>
<path fill="#C9C9C9" d="M202.5,53.3l17.3-55.9c0.7-2.6,1.5-3.4,5.2-3.4c0.4,0,1-0.2,1-1.3c0-1-0.6-1.3-1-1.3h-15.8
	c-0.4,0-1,0.3-1,1.3c0,1.1,0.7,1.3,1,1.3c3.7,0,5.9,1,5.9,3.4L203,38.6L190.5-2.6c0-2.4,1.1-3.4,4.8-3.4c0.4,0,1-0.2,1-1.3
	c0-1-0.7-1.3-1-1.3h-21.9c-0.4,0-1,0.3-1,1.3c0,1.1,0.7,1.3,1,1.3c3.7,0,5.5,0.9,6.3,3.4l16.6,55.9C197.7,57,199.6,62.3,202.5,53.3"
	/>
<path fill="#C9C9C9" d="M462.5,11c0,1.8-0.6,2.6-2.1,2.6c-2.4,0-2.2-3.3-5.8-12.2C452.3-4.3,449.9-7,444-7
	c-6.7,0-11.2,5.3-11.2,13.2c0,7.6,2.8,9.2,15.7,18.6c9.9,7.2,18.3,13.6,18.3,25.5c0,12.3-9.2,24.7-27.5,24.7
	c-6.4,0-17.5-2.6-17.5-7.3c0-19.3,0.8-20.2,2.9-20.2c2.8,0,1.4,2.8,5,12.1c3.1,7.9,7.5,11.8,14.1,11.8c7.7,0,13.4-5.8,13.4-14.3
	c0-22.7-34.5-19.9-34.5-46.1c0-10.1,8.6-20.6,22.4-20.6c9.2,0,15.8,1.8,16.7,3.1c0.6,0.9,0.6,2.1,0.6,3.7L462.5,11L462.5,11z"/>
<path fill="#C9C9C9" d="M188.6,54.4c-3.7,0-5.5-0.9-6.3-3.4L165.7-4.8c-1.4-3.7-3.2-9-6.1,0l-17.3,55.9c-0.7,2.6-1.5,3.4-5.2,3.4
	c-0.4,0-1,0.2-1,1.3c0,1,0.6,1.3,1,1.3h15.8c0.4,0,1-0.2,1-1.3c0-1.1-0.7-1.3-1-1.3c-3.7,0-5.9-1-5.9-3.4l4.9-16.6h14.7l5,16.6
	c0,2.4-1.1,3.4-4.8,3.4c-0.4,0-1,0.2-1,1.3c0,1,0.7,1.3,1,1.3h21.9c0.4,0,1-0.2,1-1.3C189.6,54.7,189,54.4,188.6,54.4 M152.8,31.1
	l6.3-21.2l6.4,21.2H152.8z"/>
<path fill="#C9C9C9" d="M145,13c0,12.7-7.8,23.1-20.7,23.1c-5.2,0-9.5-0.6-12-1.6v32.7c0,2.4,4.9,3.4,8.6,3.4c0.4,0,1,0.2,1,1.3
	c0,1-0.7,1.3-1,1.3H93c-0.4,0-1-0.3-1-1.3c0-1.1,0.7-1.3,1-1.3c3.7,0,7-1,7-3.4V-3.8c0-2.4-3.3-3.4-7-3.4c-0.4,0-1-0.2-1-1.3
	c0-1,0.7-1.3,1-1.3h28C132.6-9.8,145-0.1,145,13 M112.6,28.8c0,3.1,1.6,3.8,5.4,3.8c8,0,14.2-8.4,14.2-20.5
	c0-12.5-6.1-19.2-12.1-19.2c-5.8,0-7.6,1.9-7.6,5.3L112.6,28.8L112.6,28.8z"/>
<path fill="#C9C9C9" d="M466.8,70.7c0-2.4,1.9-4.3,4.3-4.3c2.4,0,4.3,1.9,4.3,4.3c0,2.4-1.9,4.3-4.3,4.3
	C468.7,75,466.8,73.1,466.8,70.7 M474.8,70.7c0-2.1-1.7-3.7-3.8-3.7c-2.1,0-3.8,1.7-3.8,3.7c0,2.1,1.7,3.8,3.8,3.8
	C473.1,74.5,474.8,72.8,474.8,70.7 M473.2,73.1h-0.7l-1.4-2.2h-1.1v2.2h-0.6v-4.8h2.1c0.4,0,0.8,0,1.2,0.2c0.3,0.2,0.5,0.6,0.5,1
	c0,0.9-0.7,1.3-1.5,1.3L473.2,73.1z M471,70.4c0.7,0,1.7,0.1,1.7-0.9c0-0.7-0.6-0.8-1.2-0.8h-1.4v1.7L471,70.4L471,70.4z"/>
</svg>
