<?xml version="1.0" encoding="utf-8"?>
<!-- Generator: Adobe Illustrator 18.1.1, SVG Export Plug-In . SVG Version: 6.00 Build 0)  -->
<svg version="1.1" id="Layer_1" xmlns="http://www.w3.org/2000/svg" xmlns:xlink="http://www.w3.org/1999/xlink" x="0px" y="0px"
	 viewBox="0 0 1928.6 765.5" enable-background="new 0 0 1928.6 765.5" xml:space="preserve">
<path fill="#C9C9C9" d="M1440.1,748.6c0-243.5,0-486.4,0-729c-54.7,0-108.9,0-163.7,0c0,139.5,0,278.6,0,417.7
	c-0.3,0-0.6,0.1-0.9,0.1c-29.8-139.3-59.5-278.6-89.3-418c-69.6,0-138.9,0-208.4,0c0,243,0,485.7,0,728.7c54.3,0,108.4,0,162.9,0
	c0-143.7,0-287.1,0-430.4c1.2,0.9,1.7,1.9,2,3c13,57.1,26.1,114.1,39.1,171.2c19.1,83.7,38.2,167.3,57.2,251c1,4.4,2.7,5.7,7.3,5.7
	c62.7-0.2,125.3-0.1,188-0.1C1436.2,748.6,1438.1,748.6,1440.1,748.6z M1484.9,473.4c-0.2,1.1-0.3,1.6-0.3,2.1
	c1,43.3,1.5,86.6,3.1,129.9c1.1,28.2,10.4,54.2,25.6,77.8c20.4,31.7,50.3,50.7,85.3,62.6c26.8,9.1,54.6,13.2,82.8,14.5
	c39.2,1.9,77.9-0.2,115.7-11.7c36.7-11.1,67.9-30.4,90.7-62c24.2-33.7,34.4-72.3,36.4-113c1.2-25.2,0.3-50.6-0.9-75.9
	c-1-20.5-5.8-40.5-14.3-59.4c-14.8-32.8-38.9-57.4-68-77.5c-28-19.5-58.6-34.1-89.3-48.7c-20.6-9.8-41.2-19.6-61-30.7
	c-15.4-8.6-28.4-20.6-35.5-37.5c-15.8-37.4,6-81.3,50.4-78.3c25.1,1.7,41.3,16.3,42.2,41.5c0.8,21.3,0.4,42.7,0.6,64
	c0,2.1,0.2,4.2,0.3,6.3c56.2,0,111.9,0,168.4,0c0-13.7-0.2-27.1,0-40.4c0.5-31.7,0.5-63.3-6.7-94.4
	c-14.6-63.1-52.4-104.9-114.5-124.2c-22.9-7.1-46.4-10.6-70.2-11.6c-44.6-2-88.6,0.9-130.9,16.3c-54.9,20-90.5,58-104.9,114.7
	c-12.7,49.9-11.3,100.4-1.6,150.6c9.1,47.4,34.9,83.9,75.3,110.2c29.7,19.4,61.9,33.8,94.4,47.5c18.5,7.8,37.3,15,54.2,26.4
	c38.8,26.1,46.9,61.2,31.4,106c-4.1,11.9-13.5,19.6-26.1,21.6c-7.8,1.2-16.1,1.7-23.8,0.3c-24.4-4.3-41.1-24.9-41.3-49.9
	c-0.2-23.8,0-47.7-0.1-71.5c0-1.8,0-3.6,0-5.6C1596.3,473.4,1540.8,473.4,1484.9,473.4z M248,509.9c-0.3,0-0.7,0-1,0.1
	c-0.1-0.3-0.3-0.6-0.4-0.9c-5.3-37.7-10.7-75.5-16-113.2c-8.7-61.8-17.3-123.6-26-185.4c-8.7-62-17.4-123.9-25.9-185.9
	c-0.6-4.7-2.2-5.5-6.4-5.5c-54,0.1-108,0.1-162,0.1c-1.8,0-3.5,0-5.5,0c0.1,1.5,0,2.3,0.2,3.1c6.3,31.8,12.6,63.6,19,95.4
	c19.5,98,39.1,196.1,58.6,294.1c22,110.6,44,221.2,65.9,331.8c0.8,4,2.3,5.1,6.1,5.1c61.8-0.1,123.7-0.1,185.5,0
	c4.1,0,5.4-1.5,6.1-5.1c3.7-19.1,7.5-38.2,11.3-57.3c13.9-69.8,27.7-139.6,41.6-209.5c14.4-72.8,28.9-145.5,43.3-218.3
	c13.9-70,27.8-140,41.7-210c1.9-9.6,3.7-19.2,5.7-29.1c-58.1,0-115.7,0-173.6,0C293.4,183.1,270.7,346.5,248,509.9z"/>
<path fill="#C9C9C9" d="M1440.1,748.6c-2,0-3.9,0-5.9,0c-62.7,0-125.3-0.1-188,0.1c-4.6,0-6.3-1.3-7.3-5.7
	c-19-83.7-38.1-167.3-57.2-251c-13-57.1-26-114.1-39.1-171.2c-0.2-1.1-0.7-2.1-2-3c0,143.3,0,286.6,0,430.4c-54.6,0-108.6,0-162.9,0
	c0-243,0-485.7,0-728.7c69.5,0,138.8,0,208.4,0c29.8,139.4,59.5,278.7,89.3,418c0.3,0,0.6-0.1,0.9-0.1c0-139.1,0-278.2,0-417.7
	c54.7,0,109,0,163.7,0C1440.1,262.2,1440.1,505,1440.1,748.6z"/>
<path fill="#C9C9C9" d="M935.8,382.9c0,69,0.3,138-0.1,207c-0.2,47.2-15.8,88.5-50.8,121.2c-24.4,22.8-53.8,35.8-86.2,42.6
	c-37.2,7.8-74.9,7-112.5,5.6c-25.3-1-50.4-5.1-74.2-14.3c-58.6-22.7-93.7-65-104.4-127c-1.6-9.3-2.1-18.9-2.1-28.4
	c-0.1-137.8-0.3-275.6,0-413.4c0.1-51.3,18.1-95.1,58.3-128.2c26.1-21.5,56.8-33,90-37.9c40.3-6,80.7-5.7,121.1-1.8
	c36.9,3.6,71.3,15,100.8,38.3c33.7,26.6,52.5,61.7,58.2,104c1.5,11,1.8,22.2,1.8,33.4C935.9,250.3,935.8,316.6,935.8,382.9z
	 M764.2,382.6c0-35.2,0-70.3,0-105.5c0-22.7,0.1-45.3-0.1-68c-0.2-18.6-10.9-34.2-27.8-40.8c-16.2-6.4-34.7-2.3-46.9,10.4
	c-9.1,9.5-12.2,21-12.2,33.8c0.1,113.3,0,226.6,0,339.9c0,1.2,0,2.3,0,3.5c1.2,30,27,49.7,55.2,42c19-5.1,31.6-22.3,31.6-43.5
	C764.2,497.3,764.2,440,764.2,382.6z"/>
<path fill="#C9C9C9" d="M1484.9,473.4c55.8,0,111.4,0,167.5,0c0,2.1,0,3.9,0,5.6c0,23.8-0.1,47.7,0.1,71.5
	c0.2,25,16.9,45.6,41.3,49.9c7.7,1.4,16,0.9,23.8-0.3c12.6-2,21.9-9.7,26.1-21.6c15.5-44.7,7.4-79.8-31.4-106
	c-16.9-11.4-35.7-18.6-54.2-26.4c-32.5-13.7-64.7-28.1-94.4-47.5c-40.4-26.3-66.2-62.8-75.3-110.2c-9.7-50.2-11.1-100.7,1.6-150.6
	c14.4-56.7,50-94.8,104.9-114.7c42.4-15.4,86.4-18.4,130.9-16.3c23.9,1.1,47.4,4.5,70.2,11.6c62.1,19.3,99.9,61,114.5,124.2
	c7.2,31.1,7.2,62.8,6.7,94.4c-0.2,13.3,0,26.6,0,40.4c-56.5,0-112.2,0-168.4,0c-0.1-2.1-0.3-4.2-0.3-6.3c-0.2-21.3,0.1-42.7-0.6-64
	c-0.9-25.2-17.1-39.7-42.2-41.5c-44.4-3.1-66.2,40.9-50.4,78.3c7.1,16.8,20.1,28.8,35.5,37.5c19.8,11.1,40.5,20.9,61,30.7
	c30.7,14.6,61.3,29.3,89.3,48.7c29.1,20.2,53.2,44.8,68,77.5c8.5,18.9,13.3,38.8,14.3,59.4c1.2,25.3,2.2,50.6,0.9,75.9
	c-2,40.7-12.1,79.2-36.4,113c-22.7,31.6-54,50.9-90.7,62c-37.8,11.5-76.6,13.6-115.7,11.7c-28.2-1.4-56-5.4-82.8-14.5
	c-35-11.9-65-30.9-85.3-62.6c-15.2-23.6-24.6-49.7-25.6-77.8c-1.6-43.3-2.1-86.6-3.1-129.9C1484.6,475,1484.7,474.5,1484.9,473.4z"
	/>
<path fill="#C9C9C9" d="M248,509.9c22.7-163.4,45.4-326.8,68.2-490.5c57.9,0,115.5,0,173.6,0c-1.9,9.9-3.8,19.5-5.7,29.1
	c-13.9,70-27.8,140-41.7,210c-14.4,72.8-28.9,145.5-43.3,218.3c-13.9,69.8-27.7,139.6-41.6,209.5c-3.8,19.1-7.6,38.2-11.3,57.3
	c-0.7,3.6-2,5.1-6.1,5.1c-61.8-0.2-123.7-0.1-185.5,0c-3.9,0-5.3-1-6.1-5.1C126.6,633,104.6,522.4,82.6,411.8
	c-19.5-98-39.1-196.1-58.6-294.1C17.7,85.9,11.3,54.1,5,22.2c-0.2-0.8-0.1-1.6-0.2-3.1c1.9,0,3.7,0,5.5,0c54,0,108,0,162-0.1
	c4.2,0,5.8,0.9,6.4,5.5c8.4,62,17.2,123.9,25.9,185.9c8.7,61.8,17.3,123.6,26,185.4c5.3,37.7,10.6,75.5,16,113.2
	c0,0.3,0.3,0.6,0.4,0.9C247.3,510,247.6,509.9,248,509.9z"/>
</svg>
