<?xml version="1.0" encoding="utf-8"?>
<!-- Generator: Adobe Illustrator 18.1.1, SVG Export Plug-In . SVG Version: 6.00 Build 0)  -->
<svg version="1.1" id="Layer_1" xmlns="http://www.w3.org/2000/svg" xmlns:xlink="http://www.w3.org/1999/xlink" x="0px" y="0px"
	 viewBox="198 -133.7 485 331.7" enable-background="new 198 -133.7 485 331.7" xml:space="preserve">
<path fill="#C9C9C9" d="M417.3-100c2.2,0,3.6-2.2,4.9-5.6c1.8-4.2,10.1-12,21.5-12c8.7,0,17.1,5.4,24,11c6.5,5.4,11.8,5.6,11.8,8
	c0,0.8-1.4,1.4-3,1.4c-6.5,0-17.9-9.8-30.2-9.8c-13.8,0-25,12-25,18.7c0,2,0.8,3.6,3.4,3.6c3,0,6.3-7.2,14-7.2
	c7.1,0,13,6.8,22.9,5.4c1.2-0.2,1.6,1.6,0.8,2c-19.7,11.2-40.6,21.7-40.6,57c0,27.1,15.2,53.2,48.7,53.2c34.9,0,51.6-22.7,51.6-53.2
	c0-26.3-15.9-50.6-37.4-50.6c-0.8,0-1.6,0-2.4,0.2c-1.4,0.4-2.6,1.6-2.6,3.4c0,2.2,0.6,2.8,2,3.8c13.8,9.8,18.5,19.3,18.5,45.9
	c0,18.7-7.7,39.5-27,39.5c-20.9,0-29.8-22.4-29.8-42.5c0-23.3,5.9-34.3,20.5-45.3c15.8-12,34.5-17.6,34.5-28.5
	c0-5.4-5.7-6.4-9.5-6.6c-3.4-0.2-8.1-1.4-10.5-4.8c-9.7-10.2-20.9-20.7-34.3-20.7c-19.1,0-30.4,20.3-30.4,27.9
	C413.9-102.8,414.5-100,417.3-100z"/>
<path fill="#C9C9C9" d="M608.1-70.1h3c0.9,0,2.1,0.9,2.4,2.3c0.5,1.2,0.6,2,0.6,6V6.4c0,4.1-0.1,4.9-0.6,6.1c-0.3,1.1-1.4,2-2.4,2
	h-3c-2.1,0-3.8,1.8-3.8,4.1c0,3.4,1.7,4.4,6.8,4.4h59.2l2.9-0.2c2.4-0.1,3.2-0.8,4.2-3.4l4.4-10.2c0.9-2.1,1.2-3.5,1.2-4.3
	c0-2.1-1.5-3.7-3.9-3.7c-2,0-2.7,0.6-4.5,3.3c-3,4.4-5.9,6.7-9.4,7.3c-2.6,0.5-6.5,0.6-14,0.6c-8,0-11-0.3-13-1.1
	c-2.4-0.9-2.9-2.6-2.9-10.7v-24.1c0-3.4,0.5-4.9,1.4-5.5c0.8-0.5,1.8-0.6,6.2-0.6h11.8c3.9,0,5.9-1.8,5.9-5.4c0-3.7-1.5-5-5.9-5
	h-19.3v-19.6c0-8.1,0.9-9.1,9.2-9.1h10.1c9.5,0,12.4,1.1,15.4,5.5c1.1,1.4,1.6,2.3,1.8,2.6c0.6,0.6,1.4,1.2,2.1,1.5
	c0.4,0.3,1.1,0.5,1.6,0.5c2.3,0,4.1-1.7,4.1-3.5c0-0.5-0.3-1.4-0.8-2.6l-4.4-11.3c-0.9-2.3-2.1-3.1-5.3-3.1h-58.1
	c-5.1,0-6.9,1.1-6.9,4.4C604.2-72.1,606-70.1,608.1-70.1z"/>
<path fill="#C9C9C9" d="M527.3-70.1h2.9c1,0,2.3,0.8,2.6,2c0.4,1.2,0.6,1.8,0.6,5.9v69c0,3.8-0.2,4.6-0.6,5.6c-0.3,1.1-1.5,2-2.6,2
	h-2.9c-2.1,0-3.8,1.8-3.8,4.1c0,3.4,1.7,4.4,6.6,4.4h58.1c4.7,0,5.9-0.8,7.4-4.6l4.7-11.6l0.6-1.7c0.3-0.6,0.5-1.2,0.5-1.8
	c0-1.8-1.8-3.4-4.1-3.4c-1.8,0-2.7,0.6-4.5,3.2c-3.6,5.2-5.6,7.2-8.1,8.2c-2.6,1.1-4.2,1.1-13.3,1.1c-10.4,0-13.3-0.2-14.8-1.2
	c-1.8-1.1-2.1-2.6-2.1-9.3v-64.1c0-4,0-4.9,0.4-5.9c0.4-1.2,1.8-2,3.2-2h3.3c2.1,0,3.9-1.8,3.9-4.3c0-3.4-1.8-4.4-7.2-4.4h-27.9
	c-5.1,0-6.9,1.1-6.9,4.4C523.3-71.9,525.1-70.1,527.3-70.1z"/>
<path fill="#C9C9C9" d="M502.9,121.2c-0.2,3.5-0.5,3.8-5.1,4.6c-2.6,0.3-4.1,1.8-4.1,4.1c0,1.2,0.8,2.6,1.8,3.4
	c5.3,4.1,23.2,7.6,38.9,7.6c16.8,0,28.4-3.4,37.3-10.5c11.2-9,17.3-24.3,17.3-42.7c0-16.5-4.8-30.4-13.7-39.4
	c-9.2-9.5-21.6-13.6-39.7-13.6c-17.1,0-34.7,3.2-40,7.3c-1.2,0.9-2,2.3-2,3.7c0,2.3,1.7,3.8,4.5,4c4.1,0.3,4.5,0.9,4.7,4.9l0.2,3.4
	v60L502.9,121.2z M524.2,59.8c0-8.7,0.3-10.5,2.3-12.1c2.3-1.8,6.6-3.1,11.3-3.1c18,0,28.7,15.9,28.7,42.7
	c0,26.9-10.7,42.4-29.3,42.4c-5.7,0-10.3-1.5-11.9-3.8c-0.9-1.5-1.1-2.8-1.1-8.9V59.8L524.2,59.8z"/>
<path fill="#C9C9C9" d="M601.2,75.2c4.7,5.5,6,6.4,20.4,16.5c8.6,6.1,12.7,9.5,16,13.1c3.2,3.7,4.8,7.3,4.8,11.4
	c0,8.1-6.6,13.6-16.4,13.6c-8.6,0-17.1-4.6-22.3-12.1l-2.1-3.1c-0.9-1.2-2.3-2-3.8-2c-2.7,0-4.8,2-4.8,4.7c0,0.8,0.1,2.1,0.4,3
	l3.8,15.3c0.9,3.7,2.1,5,4.7,5c1.4,0,2.1-0.3,3.5-1.4c1.4-1.2,2-1.5,3.2-1.5c0.9,0,1.2,0.2,3.3,0.8c4.4,1.4,10.3,2.1,15.9,2.1
	c19.9,0,32.9-11.6,32.9-29.3c0-7.8-3-15.4-8.1-20.8c-4.8-5-8.7-8.1-20.7-16.5c-3.2-2.3-5.6-4-7.4-5.3c-3-2.3-5.4-4.7-6.9-7
	c-1.2-1.7-1.7-4-1.7-6.3c0-6.3,4.5-10.2,11.5-10.2c5,0,10.1,1.7,14.2,4.9c3.2,2.4,3.8,3.1,7.2,8.2c1.4,2,2.3,2.6,3.9,2.6
	c2.6,0,4.4-1.7,4.4-3.7c0-0.4,0-1.4-0.3-2.1l-3.6-16.5c-0.6-2.8-2-4.3-4.2-4.3c-1.2,0-1.7,0.1-3.2,1.2c-1.3,0.9-2.4,1.4-3.5,1.4
	c-0.6,0-1.4-0.1-2.1-0.3c-2.1-0.5-3.3-0.8-3.8-0.9c-4.4-0.9-8.8-1.4-13-1.4c-16.6,0-27.8,9.8-27.8,24.6
	C595.4,65.3,597.4,70.8,601.2,75.2z"/>
<path fill="#C9C9C9" d="M266.6,47.1c15.7,0,17.5,0.6,21.7,7c1.5,2.3,2.6,3.2,4.2,3.2c2.3,0,3.9-1.7,3.9-3.7c0-0.6-0.1-1.2-0.6-2.4
	L292,40.9c-0.8-1.8-1.5-3-2.4-3.5c-0.8-0.5-1.2-0.6-3.6-0.6h-55.4c-5,0-6.6,1.1-6.6,4.4c0,2.3,1.5,4.3,3.6,4.3h3
	c1.1,0,2.1,0.8,2.6,2c0.3,1.1,0.5,2,0.5,6v68.5c0,4.1-0.2,4.9-0.5,6c-0.5,1.2-1.5,2-2.6,2h-3c-2.1,0-3.9,2-3.9,4.3
	c0,3.4,1.8,4.4,6.9,4.4h27.8c5.6,0,7.4-1.1,7.4-4.4c0-2.3-1.7-4.3-3.9-4.3h-3.5c-1.2,0-2.6-0.8-3.2-2c-0.5-1.1-0.5-1.8-0.5-6V91.5
	c0-3.2,0.2-4.1,1.2-4.6c0.6-0.3,1.4-0.5,2.1-0.5h15.4c4.2,0,6.5-1.8,6.5-5.2c0-3.5-2.1-5.2-6.5-5.2h-18.7V53.4
	C254.7,47.4,255.6,47.1,266.6,47.1z"/>
<path fill="#C9C9C9" d="M653.2,150.8H232.7c-12.9,0-23.3,10.5-23.3,23.6c0,13,10.4,23.6,23.3,23.6h420.5c12.9,0,23.3-10.6,23.3-23.6
	C676.5,161.4,666.1,150.8,653.2,150.8z M289.9,182.9c0,0.4,0.6,0.7,1,0.7h1c0.8,0,1.5,0.8,1.5,1.7c0,1.2-0.6,1.6-2.5,1.6h-10.9
	c-1.9,0-2.7-0.5-2.7-1.6c0-0.9,0.7-1.7,1.6-1.7h1c0.5,0,0.9-0.3,1.1-0.7c0.2-0.5,0.2-0.7,0.2-2.3v-12.2l-9.7,9.6c-0.6,0.6-1.3,1-2,1
	c-0.7,0-1-0.2-1.8-1l-9.2-9.9v12.5c0,1.5,0,1.9,0.2,2.3c0.2,0.5,0.6,0.7,1,0.7h1.2c0.9,0,1.6,0.8,1.6,1.7c0,1.2-0.6,1.6-2.8,1.6
	h-7.8c-1.9,0-2.7-0.5-2.7-1.6c0-0.9,0.8-1.7,1.6-1.7h1c0.5,0,0.8-0.3,1-0.7c0.2-0.4,0.2-0.9,0.2-2.3v-13.7c0-1.6,0-2-0.2-2.4
	c-0.2-0.5-0.6-0.8-1-0.8h-1c-0.8,0-1.6-0.7-1.6-1.6c0-1.2,0.8-1.7,2.7-1.7h8.8c0.9,0,1.5,0.2,2.7,1.6l8.3,9.2l9.7-9.6
	c1-1,1.6-1.2,2.5-1.2h6.8c1.8,0,2.5,0.5,2.5,1.7c0,0.9-0.7,1.6-1.5,1.6h-1.2c-0.5,0-0.7,0.3-0.9,0.7c-0.2,0.4-0.2,0.9-0.2,2.5v13.7
	C289.6,182.1,289.6,182.5,289.9,182.9z M362.3,187h-12.2c-1.2,0-1.8-0.7-1.8-1.6c0-1.2,0.7-1.5,2.2-1.7c1.3-0.2,1.4-0.9,0.9-2.2
	l-0.2-0.4c-0.3-0.8-0.7-0.9-2.1-0.9h-8.9c-0.9,0-1.4,0.1-1.6,0.2c-0.3,0.1-0.5,0.2-0.6,0.5l-0.1,0.3c-0.4,0.9,0,2.3,1.6,2.4
	c1.5,0.2,2.1,0.6,2.1,1.7c0,1.1-0.8,1.7-2,1.7h-9.6c-1.4,0-2.1-0.5-2.1-1.5c0-1,0.5-1.4,1.6-1.7c0.8-0.2,1.1-0.4,1.4-0.8
	c0.3-0.3,0.8-1.4,1.4-2.4l9-18.1c1-2.1,3-2.5,4.8-2.5c1.7,0,3.7,0.6,4.7,2.5l8.7,17.4c1.3,2.7,1.8,3.3,2.7,3.6l0.8,0.3
	c0.6,0.2,1,0.7,1,1.5C364.3,186.3,363.6,187,362.3,187z M433.5,187h-7.2c-1.6,0-2.4-0.5-3.5-1.7l-8.1-9.2c-0.8-0.9-1.1-1.4-1.1-1.8
	c0-0.8,0.7-1.1,2.3-1.3c4.1-0.4,6.1-1.8,6.1-5c0-3.5-2.8-5.1-6.3-5.1c-1.4,0-2.7,0.3-3.4,0.8c-0.6,0.5-0.8,1.3-1,2.9l-0.1,1.9v12
	c0,1.5,0,2,0.2,2.3c0.2,0.5,0.7,0.8,1.1,0.8h1.2c0.8,0,1.5,0.7,1.5,1.7c0,1.2-0.7,1.7-2.7,1.7h-10.8c-1.9,0-2.7-0.5-2.7-1.7
	c0-0.9,0.8-1.7,1.6-1.7h1c0.6,0,0.9-0.3,1.1-0.8c0.1-0.4,0.1-0.8,0.1-2.3v-13.4c0-1.6-0.3-1.9-1.8-2c-1.2-0.1-1.8-0.6-1.8-1.6
	c0-0.5,0.3-1.1,0.6-1.4c1.9-1.5,9.2-2.3,15-2.3c9.9,0,15.4,2.6,15.4,7.5c0,3.4-1.5,6.2-6.9,7.1l5.2,5.7c1.9,2.1,3.3,2.9,4.9,3.1
	c1.2,0.3,1.3,0.4,1.7,0.5c0.3,0.2,0.7,0.7,0.7,1.3C436,186.3,435.1,187,433.5,187z M485.3,187h-10.8c-1.9,0-2.6-0.5-2.6-1.7
	c0-0.9,0.8-1.7,1.6-1.7h1c0.6,0,0.9-0.3,1.1-0.8c0.2-0.4,0.2-0.8,0.2-2.3v-13.6c0-1.5,0-2.1-0.2-2.3c-0.2-0.4-0.5-0.8-1.1-0.8h-1
	c-0.9,0-1.6-0.7-1.6-1.7c0-1.2,0.8-1.7,2.6-1.7h10.8c2,0,2.7,0.5,2.7,1.7c0,1-0.7,1.7-1.5,1.7h-1.2c-0.5,0-0.8,0.3-1,0.8
	c-0.2,0.5-0.3,0.7-0.3,2.3v13.6c0,1,0,2,0.3,2.4c0.3,0.4,0.6,0.7,0.9,0.7h1.2c0.7,0,1.5,0.7,1.5,1.7C488,186.5,487.2,187,485.3,187z
	 M508.3,187H501c-1.6,0-2.1-0.5-3.2-1.7l-10.6-10.6c-0.5-0.5-0.7-0.8-0.7-1.1c0-0.3,0.3-0.7,0.7-1l7.7-6.5c1.1-1,0.5-2.2-0.2-2.2
	c-0.7,0-1.1-0.6-1.1-1.8c0-1.1,0.5-1.7,1.8-1.7h12.3c1.3,0,2,0.5,2,1.6c0,1-0.5,1.5-2,1.7c-1.3,0.2-1.9,0.2-2.8,0.4
	c-0.9,0.2-2,0.9-2.7,1.5l-7,6.1l8.7,8.6c2.3,2.3,3.6,3,4.7,3.3c1.3,0.3,1.9,0.6,1.9,1.7C510.5,186.3,509.8,187,508.3,187z M577,181
	l-2,5.1c-0.3,0.7-0.5,0.8-1.5,0.8l-1.2,0.1h-23.7c-2,0-2.7-0.5-2.7-1.7c0-0.9,0.7-1.6,1.5-1.6h1.2c0.3,0,0.8-0.4,0.9-0.8
	c0.2-0.4,0.3-0.8,0.3-2.3V167c0-1.5,0-1.9-0.3-2.3c-0.1-0.5-0.5-0.9-0.9-0.9h-1.2c-0.8,0-1.6-0.8-1.6-1.7c0-1.2,0.8-1.7,2.8-1.7H572
	c1.2,0,1.7,0.2,1.9,0.8l1.8,4.6c0.1,0.2,0.3,0.5,0.2,0.7c-0.1,0.5-1.1,0.9-1.9,0.9c-0.3,0-0.5,0-0.7-0.1c-0.3-0.1-0.5-0.2-0.7-0.3
	c-0.1-0.2-0.2-0.4-0.6-0.7c-1-1.1-2.6-2.3-6.4-2.3h-3.9c-3.3,0-3.6,0.3-3.6,2.4v4.4h7.5c1.8,0,2.3,1,2.3,2c0,1.1-0.7,2.1-2.3,2.1
	H561c-1.2,0-2.1-0.1-2.4,0.1c-0.3,0.2-0.5,0.7-0.5,1.6v4.2c0,2.1,0.2,2.5,1.2,2.8c0.6,0.2,2,0.3,5.1,0.3c2.9,0,4.5-0.1,5.4-0.2
	c1.3-0.2,3.2-2.4,4.2-3.6c0.6-0.7,0.8-0.9,1.6-0.9c1,0,1.5,0.4,1.7,0.9C577.2,180.1,577.2,180.4,577,181z M642.9,167.8
	c-0.6,0-1.1-0.2-1.6-0.9c-0.3-0.3-0.3-0.4-0.5-0.5c-0.6-0.7-1.5-2.1-2.2-2.3c-0.6-0.2-1.5-0.3-3.7-0.3c-2.8,0-3.1,0.2-3.1,1.9v14.8
	c0,1.5,0,1.9,0.2,2.3c0.2,0.5,0.7,0.8,1.2,0.8h1.6c0.9,0,1.6,0.7,1.6,1.7c0,1.2-0.7,1.7-2.8,1.7h-11.7c-2.1,0-2.8-0.5-2.8-1.7
	c0-0.9,0.7-1.7,1.5-1.7h1.7c0.4,0,0.8-0.3,1-0.8c0.2-0.4,0.3-0.8,0.3-2.3v-14.8c0-1.7-0.3-1.9-3.7-1.9c-3,0-4.4,1.2-5.5,2.7
	l-0.3,0.4c-0.5,0.8-1,0.9-1.8,0.9c-0.8,0-2-0.4-2.1-0.9c0-0.1,0.1-0.6,0.2-0.9l1.8-4.6c0.3-1,0.6-1,2-1h27c0.9,0,0.9,0,1.3,0.2
	c0.2,0.1,0.3,0.4,0.5,0.8l1.9,4.9c0.1,0.2,0.2,0.5,0.2,0.6C645,167.4,643.8,167.8,642.9,167.8z"/>
<path fill="#C9C9C9" d="M345.6,168.8c-0.5-1-0.7-1.8-0.8-2.5h-0.2c-0.2,0.6-0.5,1.5-1,2.5l-2.9,6.5l-0.6,0.9l1-0.1h7.1l0.8,0.1
	l-0.5-0.9L345.6,168.8z"/>
<path fill="#C9C9C9" d="M239.6,17.7c2.1,5.8,4.2,7.6,8.6,7.6c2,0,3.9-0.7,5.1-1.7c1.2-1.2,1.7-2.3,3-5.9l14.8-41.8l13.9,41.8
	c1.8,5.6,4.1,7.6,8.6,7.6c4.5,0,6.5-2.1,8.8-9.6l24-78.3c1.7-5.4,2.7-6.8,5.9-7.5h0.8c1.1,0,2.1,0.8,2.6,2c0.4,1.1,0.4,1.8,0.4,6
	V6.4c0,4.1,0,4.9-0.4,6.1c-0.3,1.1-1.5,1.8-2.6,1.8h-3c-2.1,0-3.9,2-3.9,4.3c0,3.4,1.8,4.4,6.9,4.4h27.5c4.8,0,6.5-1.1,6.5-4.3
	c0-2.4-1.5-4.4-3.6-4.4h-2.9c-1.2,0-2.4-0.8-2.9-1.8c-0.3-1.2-0.5-2.1-0.5-6.1v-27.9c0-7,0.6-7.6,6.2-7.6H384c3,0,4.5,0.5,5.3,1.4
	c0.8,0.9,0.8,1.5,0.8,7.2v27c0,4,0,4.9-0.5,6.1c-0.5,1.1-1.7,1.8-2.7,1.8H384c-2.1,0-3.9,2-3.9,4.3c0,3.4,1.7,4.4,6.8,4.4h27.5
	c5.3,0,6.9-1.1,6.9-4.4c0-2.3-1.7-4.3-3.9-4.3h-3c-1.1,0-2.3-0.8-2.6-1.8c-0.4-1.2-0.6-2.1-0.6-6.1v-68.5c0-3.8,0.1-4.9,0.6-6
	c0.3-1.1,1.5-2,2.6-2h3c2.1,0,3.9-1.8,3.9-4.3c0-3.4-1.8-4.4-6.9-4.4h-27.5c-5.1,0-6.9,1.1-6.9,4.4c0,2.4,1.8,4.3,4.1,4.3h2.9
	c1,0,2.3,0.8,2.7,2c0.5,1.1,0.5,2,0.5,6v22.6h-32.8v-22.6c0-3.8,0.1-4.9,0.5-6c0.4-1.1,1.7-2,2.9-2h2.9c2.1,0,3.8-1.8,3.8-4.3
	c0-3.4-1.7-4.4-6.6-4.4h-49.9c-4.1,0-5.7,1.2-5.7,4.3c0,2.4,1.5,4,4.8,4.3c3.6,0.4,5.3,1.7,5.3,4c0,0.9-0.2,2.1-0.6,3.7L296.7-4.2
	l-18-55.9c-1.2-3.7-1.5-5-1.5-6.4c0-2.7,1.1-3.7,5.1-4.1c3.3-0.5,4.8-1.7,4.8-4.1c0-2.7-1.7-4.1-5.1-4.1h-29.6
	c-3.5,0-5.3,1.7-5.3,4.6c0,2.3,1.2,3.4,4.4,4.1c3.5,0.9,4.7,1.7,5.6,4c0.3,0.6,0.6,1.8,1.2,3.5l6.9,20.5l-14,39.5L230.9-60l-1.2-3.5
	c-0.5-1.2-0.6-2.3-0.6-3.4c0-2.4,1.4-3.5,4.7-3.8c3.9-0.3,5.4-1.4,5.4-4c0-2.7-1.5-4.1-5-4.1h-31.1c-3.5,0-5.1,1.4-5.1,4
	c0,2.4,1.1,3.5,4.2,4.1c4.8,1.1,5.6,1.8,7.8,8.1L239.6,17.7z"/>
<path fill="#C9C9C9" d="M343.1,140.8c25.5,0,43.3-14.5,48.5-38.3c5.1,23.5,22.8,38.3,47.8,38.3c30.6,0,50.1-20.9,50.1-53.6
	c0-32.1-19.5-52.7-49.8-52.7c-25.2,0-42.8,14.4-48,38.1c-5.1-23.6-22.8-38.1-48.3-38.1c-30.3,0-49.7,20.8-49.7,53.4
	C293.7,119.9,313.2,140.8,343.1,140.8z M439.5,45.4c16.8,0,27.3,16.3,27.3,42.6c0,25.6-10.4,41.8-27,41.8
	c-17.1,0-27.2-15.6-27.2-41.7C412.6,61.6,422.8,45.4,439.5,45.4z M343.2,45.4c16.8,0,27.3,16.3,27.3,42.6c0,25.6-10.4,41.8-27,41.8
	c-17.1,0-27.2-15.6-27.2-41.7C316.4,61.6,326.5,45.4,343.2,45.4z"/>
</svg>
